<?xml version="1.0" standalone="no"?>
<!DOCTYPE svg PUBLIC "-//W3C//DTD SVG 1.1//EN" "http://www.w3.org/Graphics/SVG/1.1/DTD/svg11.dtd" >
<svg xmlns="http://www.w3.org/2000/svg" xmlns:xlink="http://www.w3.org/1999/xlink" version="1.1">
<metadata>
Created by FontForge 20201107 at Tue Oct  7 13:12:37 2025
 By 
</metadata>
<defs>
<font id="ArmstrongRegular" horiz-adv-x="1667" >
  <font-face 
    font-family="Armstrong"
    font-weight="400"
    font-stretch="normal"
    units-per-em="2048"
    panose-1="0 0 0 0 0 0 0 0 0 0"
    ascent="1638"
    descent="-410"
    x-height="1067"
    cap-height="1434"
    bbox="-182 -473 3566 1860"
    underline-thickness="102"
    underline-position="-255"
    unicode-range="U+000A-FB02"
  />
<missing-glyph horiz-adv-x="1079" 
d="M102 1434h875v-1434h-875v1434zM160 1393l379 -633l381 633h-760zM514 717l-369 614v-1231zM541 674l-379 -631h758zM565 717l371 -621v1239z" />
    <glyph glyph-name="fi" unicode="fi" horiz-adv-x="1357" 
d="M1225 1221h-258v213h258v-213zM1225 0h-258v1067h258v-1067zM219 1159q0 114 80.5 194.5t194.5 80.5h366v-213h-321q-25 0 -42.5 -18t-17.5 -44v-92h350v-213h-350v-854h-260v854h-168v213h168v92z" />
    <glyph glyph-name="fl" unicode="fl" horiz-adv-x="1511" 
d="M1286 213h184v-213h-229q-114 0 -194 80t-80 194v1160h258v-1160q0 -25 18 -43t43 -18zM219 1159q0 114 80.5 194.5t194.5 80.5h366v-213h-321q-25 0 -42.5 -18t-17.5 -44v-92h350v-213h-350v-854h-260v854h-168v213h168v92z" />
    <glyph glyph-name=".notdef" horiz-adv-x="1079" 
d="M102 1434h875v-1434h-875v1434zM160 1393l379 -633l381 633h-760zM514 717l-369 614v-1231zM541 674l-379 -631h758zM565 717l371 -621v1239z" />
    <glyph glyph-name=".null" horiz-adv-x="0" 
 />
    <glyph glyph-name=".null" horiz-adv-x="0" 
 />
    <glyph glyph-name="nonmarkingreturn" unicode="&#xa;" horiz-adv-x="0" 
 />
    <glyph glyph-name="space" unicode=" " horiz-adv-x="659" 
 />
    <glyph glyph-name="exclam" unicode="!" horiz-adv-x="522" 
d="M391 0h-260v229h260v-229zM391 459h-260v975h260v-975z" />
    <glyph glyph-name="quotedbl" unicode="&#x22;" horiz-adv-x="847" 
d="M348 868h-260v566h260v-566zM760 868h-260v566h260v-566z" />
    <glyph glyph-name="numbersign" unicode="#" horiz-adv-x="1832" 
d="M1739 829h-389l-74 -227h373v-199h-437l-129 -403h-243l129 403h-305l-129 -403h-244l129 403h-328v199h391l72 227h-371v199h434l130 406h243l-129 -406h305l129 406h244l-129 -406h328v-199zM1032 602l72 227h-305l-72 -227h305z" />
    <glyph glyph-name="dollar" unicode="$" horiz-adv-x="1495" 
d="M633 1677h229v-243h481v-244h-481v-350h238q114 0 194 -80.5t80 -194.5v-291q0 -114 -80 -194t-194 -80h-238v-244h-229v244h-496v244h496v350h-236q-114 0 -194 80t-80 194v291q0 114 80 194.5t194 80.5h236v243zM1053 594h-191v-350h191q26 0 43.5 17.5t17.5 43.5v230
q0 25 -17.5 42t-43.5 17zM633 840v350h-191q-25 0 -42 -18t-17 -44v-229q0 -25 17 -42t42 -17h191z" />
    <glyph glyph-name="percent" unicode="%" horiz-adv-x="2590" 
d="M1616 1561h260l-901 -1708h-258zM1036 797q0 -114 -80 -194.5t-194 -80.5h-381q-114 0 -194.5 80.5t-80.5 194.5v352q0 114 80.5 194t194.5 80h381q114 0 194 -80t80 -194v-352zM717 721q25 0 43 17.5t18 43.5v381q0 25 -18 43.5t-43 18.5h-291q-24 0 -41.5 -18.5
t-17.5 -43.5v-381q0 -26 17 -43.5t42 -17.5h291zM2212 889q114 0 194 -80.5t80 -194.5v-350q0 -114 -80 -194t-194 -80h-383q-114 0 -194.5 80t-80.5 194v350q0 114 80.5 194.5t194.5 80.5h383zM2226 248v381q0 26 -17.5 43.5t-43.5 17.5h-289q-26 0 -43.5 -17.5
t-17.5 -43.5v-381q0 -25 17.5 -43.5t43.5 -18.5h289q26 0 43.5 18.5t17.5 43.5z" />
    <glyph glyph-name="ampersand" unicode="&#x26;" horiz-adv-x="1695" 
d="M1337 279l316 -279h-336l-137 121l-121 -121h-672q-114 0 -194 80t-80 194v222q0 114 80 194t194 80h62l-230 203v186q0 114 80.5 194.5t194.5 80.5h473q114 0 194 -80.5t80 -194.5v-184h-258v184q0 25 -18 42.5t-43 17.5h-381q-26 0 -44 -17.5t-18 -42.5v-115l699 -622
l18 20v351h227v-428zM967 213l51 51l-346 307h-240q-25 0 -42 -17.5t-17 -43.5v-236q0 -26 17 -43.5t42 -17.5h535z" />
    <glyph glyph-name="quotesingle" unicode="'" horiz-adv-x="436" 
d="M348 868h-260v566h260v-566z" />
    <glyph glyph-name="parenleft" unicode="(" horiz-adv-x="870" 
d="M137 1159q0 114 80.5 194.5t194.5 80.5h366v-213h-321q-25 0 -42.5 -18.5t-17.5 -43.5v-885q0 -25 17.5 -43t42.5 -18h321v-213h-366q-114 0 -194.5 80t-80.5 194v885z" />
    <glyph glyph-name="parenright" unicode=")" horiz-adv-x="870" 
d="M733 274q0 -114 -80 -194t-194 -80h-367v213h320q26 0 43.5 18t17.5 43v885q0 25 -17.5 43.5t-43.5 18.5h-320v213h367q114 0 194 -80.5t80 -194.5v-885z" />
    <glyph glyph-name="asterisk" unicode="*" horiz-adv-x="1038" 
d="M950 1141l-268 -135l268 -136l-98 -170l-252 168l16 -274h-196l16 274l-252 -168l-98 170l268 136l-268 135l98 172l252 -170l-16 274h196l-16 -274l252 170z" />
    <glyph glyph-name="plus" unicode="+" horiz-adv-x="1220" 
d="M739 823h404v-215h-404v-350h-260v350h-403v215h403v351h260v-351z" />
    <glyph glyph-name="comma" unicode="," horiz-adv-x="421" 
d="M59 244h306v-183l-29 -61l-125 -258h-182l135 258h-105v244z" />
    <glyph glyph-name="hyphenminus" unicode="-" horiz-adv-x="1069" 
d="M1014 602h-961v213h961v-213z" />
    <glyph glyph-name="period" unicode="." horiz-adv-x="419" 
d="M362 0h-305v244h305v-244z" />
    <glyph glyph-name="slash" unicode="/" horiz-adv-x="1040" 
d="M995 1434l-686 -1434h-260l686 1434h260z" />
    <glyph glyph-name="zero" unicode="0" horiz-adv-x="1525" 
d="M1114 1434q114 0 194.5 -80.5t80.5 -194.5v-885q0 -114 -80.5 -194t-194.5 -80h-702q-114 0 -194.5 80t-80.5 194v885q0 114 80.5 194.5t194.5 80.5h702zM1128 305v823q0 26 -17.5 44t-43.5 18h-610q-25 0 -42.5 -18t-17.5 -44v-823q0 -26 17.5 -43.5t42.5 -17.5h610
q26 0 43.5 17.5t17.5 43.5z" />
    <glyph glyph-name="one" unicode="1" horiz-adv-x="755" 
d="M61 1190v244h549v-1434h-260v1190h-289z" />
    <glyph glyph-name="two" unicode="2" horiz-adv-x="1390" 
d="M1147 741l-617 -497h744v-244h-1159v213l860 698q24 21 24 50v167q0 26 -17.5 44t-43.5 18h-504q-25 0 -42 -18t-17 -44v-213h-260v244q0 114 80 194.5t194 80.5h594q114 0 195.5 -80.5t81.5 -194.5v-196q0 -66 -30 -125t-83 -97z" />
    <glyph glyph-name="three" unicode="3" horiz-adv-x="1402" 
d="M1096 723q80 -28 131 -99t51 -159v-191q0 -114 -80 -194t-194 -80h-611q-114 0 -194 80t-80 194v183h260v-152q0 -26 17 -43.5t42 -17.5h520q25 0 42.5 17.5t17.5 43.5v230q0 25 -17.5 42t-42.5 17h-335v246h305q25 0 42 17t17 42v229q0 26 -17 44t-42 18h-490
q-25 0 -42 -18t-17 -44v-151h-260v182q0 114 80 194.5t194 80.5h580q114 0 194 -80.5t80 -194.5v-190q0 -80 -41 -146t-110 -100z" />
    <glyph glyph-name="four" unicode="4" horiz-adv-x="1357" 
d="M1237 885v-885h-260v328h-899v213l686 893h305l-674 -877h582v328h260z" />
    <glyph glyph-name="five" unicode="5" horiz-adv-x="1409" 
d="M1014 877q114 0 194 -80.5t80 -194.5v-328q0 -114 -80 -194t-194 -80h-611q-114 0 -194 80t-80 194v183h260v-168q0 -25 17.5 -42.5t42.5 -17.5h520q25 0 42 17.5t17 42.5v299q0 25 -17 42t-42 17h-809v787h1067v-230h-809v-327h596z" />
    <glyph glyph-name="six" unicode="6" horiz-adv-x="1392" 
d="M991 831q114 0 194.5 -80t80.5 -194v-283q0 -114 -80.5 -194t-194.5 -80h-579q-114 0 -194.5 80t-80.5 194v885q0 114 80.5 194.5t194.5 80.5h549q114 0 194 -80.5t80 -194.5v-137h-258v123q0 24 -18.5 41.5t-43.5 17.5h-458q-25 0 -42.5 -17t-17.5 -42v-314h594z
M1006 289v252q0 26 -17.5 43.5t-42.5 17.5h-549v-313q0 -25 17.5 -42.5t42.5 -17.5h489q25 0 42.5 17.5t17.5 42.5z" />
    <glyph glyph-name="seven" unicode="7" horiz-adv-x="1292" 
d="M1227 1266l-6 -13l-29 -49l-696 -1204h-299l698 1204h-827v230h1159v-168z" />
    <glyph glyph-name="eight" unicode="8" horiz-adv-x="1486" 
d="M1178 723q80 -28 131 -99t51 -159v-191q0 -114 -80.5 -194t-194.5 -80h-686q-114 0 -194 80t-80 194v191q0 88 51 159t131 99q-69 34 -110 100t-41 146v190q0 114 80 194.5t194 80.5h625q114 0 194 -80.5t80 -194.5v-190q0 -80 -41 -146t-110 -100zM414 1145v-252
q0 -26 18 -44t43 -18h535q25 0 43 18t18 44v252q0 25 -18 42t-43 17h-535q-25 0 -43 -17t-18 -42zM1102 289v252q0 26 -18.5 43.5t-43.5 17.5h-596q-25 0 -42 -17.5t-17 -43.5v-252q0 -25 17 -42.5t42 -17.5h596q25 0 43.5 17.5t18.5 42.5z" />
    <glyph glyph-name="nine" unicode="9" horiz-adv-x="1456" 
d="M1044 1434q114 0 194.5 -80.5t80.5 -194.5v-885q0 -114 -80.5 -194t-194.5 -80h-641q-114 0 -194 80t-80 194v138h260v-123q0 -25 17.5 -42.5t42.5 -17.5h548q26 0 44 17.5t18 42.5v313h-656q-114 0 -194 80.5t-80 194.5v282q0 114 80 194.5t194 80.5h641zM1059 831v314
q0 25 -18 42t-44 17h-548q-25 0 -42.5 -17t-17.5 -42v-252q0 -26 17.5 -44t42.5 -18h610z" />
    <glyph glyph-name="colon" unicode=":" horiz-adv-x="468" 
d="M387 0h-305v244h305v-244zM387 823h-305v244h305v-244z" />
    <glyph glyph-name="semicolon" unicode=";" horiz-adv-x="471" 
d="M84 0v244h305v-183l-29 -61l-124 -258h-183l135 258h-104zM389 823h-305v246h305v-246z" />
    <glyph glyph-name="less" unicode="&#x3c;" horiz-adv-x="1187" 
d="M1085 420v-244l-1005 418v246l1005 417v-243l-712 -297z" />
    <glyph glyph-name="equal" unicode="=" horiz-adv-x="1132" 
d="M1055 426h-977v213h977v-213zM1055 793h-977v213h977v-213z" />
    <glyph glyph-name="greater" unicode="&#x3e;" horiz-adv-x="1187" 
d="M100 1014v243l1006 -417v-246l-1006 -418v244l715 297z" />
    <glyph glyph-name="question" unicode="?" horiz-adv-x="1339" 
d="M729 0h-258v227h258v-227zM967 1434q114 0 194 -80.5t80 -194.5v-252q0 -114 -80 -194t-194 -80h-207q-12 0 -21.5 -9.5t-9.5 -21.5v-145h-258v235q0 64 44.5 109t107.5 45h299q25 0 42 17.5t17 43.5v221q0 25 -17 42.5t-42 17.5h-521q-25 0 -42 -17.5t-17 -42.5v-184
h-260v215q0 114 80 194.5t194 80.5h611z" />
    <glyph glyph-name="at" unicode="@" horiz-adv-x="2029" 
d="M1208 1071h244v-477l2 -4q31 -51 111 -51q131 0 131 223q0 280 -180 420q-176 139 -500 139q-188 0 -338 -78q-162 -82 -248 -217q-92 -136 -92 -301q0 -164 92 -297q94 -135 248 -211q152 -76 338 -76q229 0 403 113l166 -133q-254 -168 -569 -168q-189 0 -354 61
q-169 61 -293 164q-123 107 -195 246q-72 144 -72 301q0 158 72 305q73 143 195 250q122 104 293 166q163 63 354 63q208 0 385 -53q171 -48 291 -139q110 -82 178 -203q63 -117 63 -242q0 -248 -129 -374q-125 -125 -331 -125q-103 0 -169.5 27.5t-86.5 99.5l-132 -131
h-196q-115 0 -196 80t-81 194v154q0 114 81 194t196 80h196l123 -123v123zM1208 612v215q0 25 -17.5 42.5t-43.5 17.5h-229q-25 0 -42.5 -17.5t-17.5 -42.5v-215q0 -25 17.5 -42t42.5 -17h229q26 0 43.5 17t17.5 42z" />
    <glyph glyph-name="A" unicode="A" horiz-adv-x="1624" 
d="M659 1434h306l639 -1434h-258l-158 350h-754l-155 -350h-261zM543 594h536l-268 600z" />
    <glyph glyph-name="B" unicode="B" horiz-adv-x="1533" 
d="M1243 723q79 -28 130.5 -99t51.5 -159v-191q0 -114 -80.5 -194t-195.5 -80h-1006v1434h977q114 0 194.5 -80.5t80.5 -194.5v-190q0 -80 -41.5 -146t-110.5 -100zM403 1190v-350h670q26 0 44 17t18 42v229q0 26 -18 44t-44 18h-670zM1165 305v230q0 25 -17.5 42t-43.5 17
h-701v-350h701q26 0 43.5 17.5t17.5 43.5z" />
    <glyph glyph-name="C" unicode="C" horiz-adv-x="1353" 
d="M131 1159q0 114 80.5 194.5t194.5 80.5h884v-244h-839q-25 0 -42.5 -18t-17.5 -44v-823q0 -26 17.5 -43.5t42.5 -17.5h839v-244h-884q-114 0 -194.5 80t-80.5 194v885z" />
    <glyph glyph-name="D" unicode="D" horiz-adv-x="1646" 
d="M1104 1434q177 0 302.5 -125t125.5 -303v-578q0 -178 -125.5 -303t-302.5 -125h-961v1434h961zM1272 457v520q0 88 -62.5 150.5t-150.5 62.5h-656v-946h656q88 0 150.5 62.5t62.5 150.5z" />
    <glyph glyph-name="E" unicode="E" horiz-adv-x="1376" 
d="M131 1159q0 114 80.5 194.5t194.5 80.5h884v-244h-839q-25 0 -42.5 -18t-17.5 -44v-288h776v-246h-776v-289q0 -26 17.5 -43.5t42.5 -17.5h839v-244h-884q-114 0 -194.5 80t-80.5 194v885z" />
    <glyph glyph-name="F" unicode="F" horiz-adv-x="1351" 
d="M143 0v1434h1160v-244h-900v-350h777v-246h-777v-594h-260z" />
    <glyph glyph-name="G" unicode="G" horiz-adv-x="1646" 
d="M786 594v246h748v-566q0 -114 -80 -194t-194 -80h-854q-114 0 -194.5 80t-80.5 194v885q0 114 80.5 194.5t194.5 80.5h1067v-244h-1022q-25 0 -42.5 -18t-17.5 -44v-823q0 -26 17.5 -43.5t42.5 -17.5h763q25 0 43.5 17.5t18.5 43.5v289h-490z" />
    <glyph glyph-name="H" unicode="H" horiz-adv-x="1675" 
d="M1272 840v594h260v-1434h-260v594h-869v-594h-260v1434h260v-594h869z" />
    <glyph glyph-name="I" unicode="I" horiz-adv-x="546" 
d="M403 0h-260v1434h260v-1434z" />
    <glyph glyph-name="J" unicode="J" horiz-adv-x="1071" 
d="M682 457v977h260v-1006q0 -178 -125.5 -303t-302.5 -125h-487v244h442q89 0 151 62.5t62 150.5z" />
    <glyph glyph-name="K" unicode="K" horiz-adv-x="1550" 
d="M1470 1434l-596 -717l658 -717h-322l-542 594h-265v-594h-260v1434h260v-594h252l494 594h321z" />
    <glyph glyph-name="L" unicode="L" horiz-adv-x="1239" 
d="M403 1434v-1190h807v-244h-1067v1434h260z" />
    <glyph glyph-name="M" unicode="M" horiz-adv-x="1843" 
d="M1440 1434h260v-1434h-260v997l-389 -585h-260l-388 585v-997h-260v1386v48h260h15l504 -756l503 756h15z" />
    <glyph glyph-name="N" unicode="N" horiz-adv-x="1691" 
d="M1288 395v1039h258v-1434h-258l-885 1038v-1038h-260v1434h260z" />
    <glyph glyph-name="O" unicode="O" 
d="M1260 1434q114 0 194 -80.5t80 -194.5v-885q0 -114 -80 -194t-194 -80h-854q-114 0 -194.5 80t-80.5 194v885q0 114 80.5 194.5t194.5 80.5h854zM1276 305v823q0 26 -18.5 44t-43.5 18h-763q-25 0 -42.5 -18t-17.5 -44v-823q0 -26 17.5 -43.5t42.5 -17.5h763
q25 0 43.5 17.5t18.5 43.5z" />
    <glyph glyph-name="P" unicode="P" horiz-adv-x="1566" 
d="M1210 1434q114 0 194.5 -80.5t80.5 -194.5v-373q0 -115 -80.5 -195.5t-194.5 -80.5h-807v-510h-260v1434h1067zM1227 815v313q0 26 -18.5 44t-43.5 18h-762v-434h762q25 0 43.5 17.5t18.5 41.5z" />
    <glyph glyph-name="Q" unicode="Q" 
d="M1260 1434q114 0 194 -80.5t80 -194.5v-885q0 -107 -73 -185.5t-179 -86.5l252 -276h-305l-250 274h-573q-114 0 -194.5 80t-80.5 194v885q0 114 80.5 194.5t194.5 80.5h854zM451 244h763q25 0 43.5 17.5t18.5 43.5v823q0 26 -18.5 44t-43.5 18h-763q-25 0 -42.5 -18
t-17.5 -44v-823q0 -26 17.5 -43.5t42.5 -17.5z" />
    <glyph glyph-name="R" unicode="R" horiz-adv-x="1677" 
d="M1272 510h-92l428 -510h-305l-429 510h-471v-510h-260v1434h1129q114 0 194 -80.5t80 -194.5v-373q0 -115 -80 -195.5t-194 -80.5zM403 756h824q25 0 43 17t18 42v313q0 26 -18 44t-43 18h-824v-434z" />
    <glyph glyph-name="S" unicode="S" horiz-adv-x="1460" 
d="M1083 840q114 0 194.5 -80.5t80.5 -194.5v-291q0 -114 -80.5 -194t-194.5 -80h-962v244h915q26 0 44 17.5t18 43.5v230q0 25 -18 42t-44 17h-655q-114 0 -194.5 80t-80.5 194v291q0 114 80.5 194.5t194.5 80.5h946v-244h-901q-25 0 -42 -18t-17 -44v-229q0 -25 17 -42
t42 -17h657z" />
    <glyph glyph-name="T" unicode="T" horiz-adv-x="1331" 
d="M25 1190v244h1282v-244h-512v-1190h-260v1190h-510z" />
    <glyph glyph-name="U" unicode="U" horiz-adv-x="1679" 
d="M1282 305v1129h258v-1160q0 -114 -80 -194t-194 -80h-854q-114 0 -194.5 80t-80.5 194v1160h260v-1129q0 -26 17.5 -43.5t42.5 -17.5h764q25 0 43 17.5t18 43.5z" />
    <glyph glyph-name="V" unicode="V" horiz-adv-x="1615" 
d="M807 291l512 1143h280l-638 -1434h-306l-641 1434h283z" />
    <glyph glyph-name="W" unicode="W" horiz-adv-x="2367" 
d="M1704 354l364 1080h275l-485 -1434h-304l-370 1053l-371 -1053h-305l-483 1434h274l365 -1080l378 1080h283z" />
    <glyph glyph-name="X" unicode="X" horiz-adv-x="1540" 
d="M1487 1434l-561 -699l592 -735h-314l-434 541l-434 -541h-313l591 735l-561 699h314l403 -504l404 504h313z" />
    <glyph glyph-name="Y" unicode="Y" horiz-adv-x="1417" 
d="M1409 1434l-559 -897l-12 -19v-518h-260v518l-11 19l-561 897h283l420 -670l417 670h283z" />
    <glyph glyph-name="Z" unicode="Z" horiz-adv-x="1392" 
d="M1327 1235l-883 -991h869v-244h-1252v199l883 991h-852v244h1235v-199z" />
    <glyph glyph-name="bracketleft" unicode="[" horiz-adv-x="876" 
d="M784 1221h-381v-1008h381v-213h-641v1434h641v-213z" />
    <glyph glyph-name="backslash" unicode="\" horiz-adv-x="1040" 
d="M45 1434h260l686 -1434h-260z" />
    <glyph glyph-name="bracketright" unicode="]" horiz-adv-x="876" 
d="M92 213h381v1008h-381v213h641v-1434h-641v213z" />
    <glyph glyph-name="asciicircum" unicode="^" horiz-adv-x="1310" 
d="M793 1434l473 -611h-275l-336 434l-336 -434h-274l473 611h275z" />
    <glyph glyph-name="underscore" unicode="_" horiz-adv-x="1220" 
d="M1167 0h-1114v197h1114v-197z" />
    <glyph glyph-name="grave" unicode="`" horiz-adv-x="636" 
d="M346 1434l244 -291h-305l-244 291h305z" />
    <glyph glyph-name="a" unicode="a" horiz-adv-x="1234" 
d="M838 1067q114 0 194 -80t80 -194v-793h-260v123l-121 -123h-366q-114 0 -194.5 80t-80.5 194v84q0 114 80.5 194.5t194.5 80.5h487v160q0 26 -17 43.5t-42 17.5h-336q-26 0 -44 -17.5t-18 -43.5v-31h-260v31q0 114 80.5 194t194.5 80h428zM852 274v146h-442
q-25 0 -42.5 -18.5t-17.5 -43.5v-84q0 -25 17.5 -43t42.5 -18h383q25 0 42 18t17 43z" />
    <glyph glyph-name="b" unicode="b" horiz-adv-x="1314" 
d="M924 1067q114 0 194 -80t80 -194v-519q0 -114 -80 -194t-194 -80h-412l-121 123v-123h-260v1434h260v-488l121 121h412zM940 274v519q0 26 -18 43.5t-43 17.5h-428q-25 0 -42.5 -17.5t-17.5 -43.5v-519q0 -25 17.5 -43t42.5 -18h428q25 0 43 18t18 43z" />
    <glyph glyph-name="c" unicode="c" horiz-adv-x="1046" 
d="M434 854q-25 0 -42 -17.5t-17 -43.5v-519q0 -25 17 -43t42 -18h535v-213h-580q-114 0 -194 80t-80 194v519q0 114 80 194t194 80h580v-213h-535z" />
    <glyph glyph-name="d" unicode="d" horiz-adv-x="1314" 
d="M924 1434h258v-1434h-258v123l-123 -123h-412q-114 0 -194 80t-80 194v519q0 114 80 194t194 80h412l123 -121v488zM924 274v519q0 26 -18.5 43.5t-43.5 17.5h-428q-25 0 -42 -17.5t-17 -43.5v-519q0 -25 17 -43t42 -18h428q25 0 43.5 18t18.5 43z" />
    <glyph glyph-name="e" unicode="e" horiz-adv-x="1243" 
d="M1137 434h-762v-160q0 -25 17 -43t42 -18h672v-213h-717q-114 0 -194 80t-80 194v519q0 114 80 194t194 80h473q114 0 194.5 -80t80.5 -194v-359zM375 793v-160h502v160q0 26 -17.5 43.5t-42.5 17.5h-383q-25 0 -42 -17.5t-17 -43.5z" />
    <glyph glyph-name="f" unicode="f" horiz-adv-x="868" 
d="M539 1221q-25 0 -42.5 -18.5t-17.5 -43.5v-92h350v-213h-350v-854h-260v854h-168v213h168v92q0 114 80.5 194.5t194.5 80.5h366v-213h-321z" />
    <glyph glyph-name="g" unicode="g" horiz-adv-x="1314" 
d="M924 1067h258v-1159q0 -114 -80.5 -194.5t-194.5 -80.5h-700v215h655q25 0 43.5 17.5t18.5 42.5v215l-123 -123h-412q-114 0 -194 80t-80 194v519q0 114 80 194t194 80h412l123 -121v121zM924 274v519q0 26 -18.5 43.5t-43.5 17.5h-428q-25 0 -42 -17.5t-17 -43.5v-519
q0 -25 17 -43t42 -18h428q25 0 43.5 18t18.5 43z" />
    <glyph glyph-name="h" unicode="h" horiz-adv-x="1323" 
d="M924 1067q114 0 194 -80t80 -194v-793h-258v793q0 26 -18 43.5t-43 17.5h-428q-25 0 -42.5 -17.5t-17.5 -43.5v-793h-260v1434h260v-488l121 121h412z" />
    <glyph glyph-name="i" unicode="i" horiz-adv-x="522" 
d="M391 1221h-260v213h260v-213zM391 0h-260v1067h260v-1067z" />
    <glyph glyph-name="j" unicode="j" horiz-adv-x="522" 
d="M131 -92v1159h260v-1159q0 -114 -80 -194.5t-194 -80.5h-199v215h152q26 0 43.5 17.5t17.5 42.5zM391 1221h-260v213h260v-213z" />
    <glyph glyph-name="k" unicode="k" horiz-adv-x="1277" 
d="M825 535l420 -535h-299l-328 420h-227v-420h-260v1434h260v-787h213l283 420h297z" />
    <glyph glyph-name="l" unicode="l" horiz-adv-x="667" 
d="M442 213h185v-213h-230q-114 0 -194 80t-80 194v1160h260v-1160q0 -25 17 -43t42 -18z" />
    <glyph glyph-name="m" unicode="m" horiz-adv-x="2023" 
d="M1626 1067q114 0 194.5 -80t80.5 -194v-793h-261v793q0 26 -17.5 43.5t-43.5 17.5h-373q-25 0 -43 -17.5t-18 -43.5v-793h-258v793q0 26 -18.5 43.5t-43.5 17.5h-374q-25 0 -42.5 -17.5t-17.5 -43.5v-793h-260v1067h260v-121l121 121h358q80 0 146 -41.5t100 -110.5
l152 152h358z" />
    <glyph glyph-name="n" unicode="n" horiz-adv-x="1323" 
d="M848 1067q165 0 257.5 -77.5t92.5 -196.5v-793h-258v793q0 26 -18 43.5t-43 17.5h-428q-25 0 -42.5 -17.5t-17.5 -43.5v-793h-260v1067h260v-121l121 121h336z" />
    <glyph glyph-name="o" unicode="o" horiz-adv-x="1298" 
d="M907 1067q114 0 194.5 -80t80.5 -194v-519q0 -114 -80.5 -194t-194.5 -80h-518q-114 0 -194 80t-80 194v519q0 114 80 194t194 80h518zM924 274v519q0 26 -18.5 43.5t-43.5 17.5h-428q-25 0 -42 -17.5t-17 -43.5v-519q0 -25 17 -43t42 -18h428q25 0 43.5 18t18.5 43z" />
    <glyph glyph-name="p" unicode="p" horiz-adv-x="1314" 
d="M924 1067q114 0 194 -80t80 -194v-519q0 -114 -80 -194t-194 -80h-412l-121 123v-490h-260v1434h260v-121l121 121h412zM940 274v519q0 26 -18 43.5t-43 17.5h-428q-25 0 -42.5 -17.5t-17.5 -43.5v-519q0 -25 17.5 -43t42.5 -18h428q25 0 43 18t18 43z" />
    <glyph glyph-name="q" unicode="q" horiz-adv-x="1314" 
d="M924 1067h258v-1434h-258v490l-123 -123h-412q-114 0 -194 80t-80 194v519q0 114 80 194t194 80h412l123 -121v121zM924 274v519q0 26 -18.5 43.5t-43.5 17.5h-428q-25 0 -42 -17.5t-17 -43.5v-519q0 -25 17 -43t42 -18h428q25 0 43.5 18t18.5 43z" />
    <glyph glyph-name="r" unicode="r" horiz-adv-x="841" 
d="M512 1067h291v-213h-352q-25 0 -42.5 -17.5t-17.5 -43.5v-793h-260v1067h260v-121z" />
    <glyph glyph-name="s" unicode="s" horiz-adv-x="1210" 
d="M844 645q114 0 194 -80t80 -194v-97q0 -114 -80 -194t-194 -80h-717v213h672q25 0 42 18t17 43v88q0 25 -17.5 43.5t-41.5 18.5h-428q-114 0 -194.5 80t-80.5 194v95q0 114 80.5 194t194.5 80h702v-213h-657q-25 0 -42.5 -17.5t-17.5 -43.5v-88q0 -25 17.5 -42.5
t42.5 -17.5h428z" />
    <glyph glyph-name="t" unicode="t" horiz-adv-x="854" 
d="M788 854h-333v-580q0 -25 17 -43t42 -18h215v-213h-260q-114 0 -194 80t-80 194v580h-138v213h138v274h260v-274h333v-213z" />
    <glyph glyph-name="u" unicode="u" horiz-adv-x="1323" 
d="M932 1067h258v-1067h-258v123l-123 -123h-336q-165 0 -257.5 77.5t-92.5 196.5v793h260v-793q0 -25 17 -43t42 -18h428q25 0 43.5 18t18.5 43v793z" />
    <glyph glyph-name="v" unicode="v" horiz-adv-x="1308" 
d="M1012 1067h268l-494 -1067h-266l-491 1067h266l358 -778z" />
    <glyph glyph-name="w" unicode="w" horiz-adv-x="1927" 
d="M1634 1067h258l-413 -1067h-238l-12 29h2l-268 694l-267 -694l-12 -29h-235l-416 1067h260l276 -713l277 713h235l275 -713z" />
    <glyph glyph-name="x" unicode="x" horiz-adv-x="1290" 
d="M791 551l464 -551h-290l-320 381l-321 -381h-289l465 551l-434 516h288l291 -344l289 344h291z" />
    <glyph glyph-name="y" unicode="y" horiz-adv-x="1308" 
d="M1012 1067h268l-588 -1272q-32 -74 -100 -118t-150 -44h-338v230h314q38 0 55 35l47 102l-491 1067h266l358 -778z" />
    <glyph glyph-name="z" unicode="z" horiz-adv-x="1148" 
d="M418 213h657v-213h-1005v168l643 686h-613v213h961v-168z" />
    <glyph glyph-name="braceleft" unicode="{" horiz-adv-x="1067" 
d="M74 610v213h198q25 0 43.5 18t18.5 44v274q0 114 80 194.5t194 80.5h365v-213h-320q-26 0 -43.5 -18.5t-17.5 -43.5v-291q0 -63 -44.5 -107t-107.5 -44q63 0 107.5 -44.5t44.5 -107.5v-291q0 -25 17.5 -43t43.5 -18h320v-213h-365q-114 0 -194 80t-80 194v275
q0 26 -18.5 43.5t-43.5 17.5h-198z" />
    <glyph glyph-name="bar" unicode="|" horiz-adv-x="546" 
d="M403 -188h-260v1769h260v-1769z" />
    <glyph glyph-name="braceright" unicode="}" horiz-adv-x="1067" 
d="M733 274q0 -114 -80 -194t-194 -80h-367v213h320q26 0 43.5 18t17.5 43v291q0 63 45.5 107.5t108.5 44.5q-63 0 -108.5 44t-45.5 107v291q0 25 -17.5 43.5t-43.5 18.5h-320v213h367q114 0 194 -80.5t80 -194.5v-274q0 -26 18 -44t44 -18h196v-213h-196q-26 0 -44 -17.5
t-18 -43.5v-275z" />
    <glyph glyph-name="asciitilde" unicode="~" horiz-adv-x="1144" 
d="M854 924h213v-291q0 -51 -36 -86t-87 -35h-106l-508 182q-13 6 -27 -3.5t-14 -24.5v-154h-213v289q0 51 36 87t87 36h106l508 -185q15 -4 28 5t13 24v156z" />
    <glyph glyph-name="nbspace" unicode="&#xa0;" horiz-adv-x="659" 
 />
    <glyph glyph-name="exclamdown" unicode="&#xa1;" horiz-adv-x="522" 
d="M391 1204h-260v230h260v-230zM391 0h-260v975h260v-975z" />
    <glyph glyph-name="cent" unicode="&#xa2;" horiz-adv-x="1359" 
d="M121 823q0 114 80 194.5t194 80.5h176v252h228v-252h176q114 0 194 -80.5t80 -194.5v-92h-260v78q0 25 -17 42t-42 17h-131v-639h131q25 0 42 17.5t17 42.5v78h260v-93q0 -114 -80 -194t-194 -80h-176v-252h-228v252h-176q-114 0 -194 80t-80 194v549zM440 868
q-25 0 -42 -17t-17 -42v-520q0 -25 17 -42.5t42 -17.5h131v639h-131z" />
    <glyph glyph-name="sterling" unicode="&#xa3;" horiz-adv-x="1378" 
d="M545 244h731v-244h-1159v213h108q25 0 42.5 18t17.5 43v328h-183v184h183v373q0 114 80 194.5t194 80.5h412q114 0 195 -80.5t81 -194.5v-123h-229v109q0 24 -18.5 41.5t-43.5 17.5h-350q-26 0 -43.5 -17t-17.5 -42v-359h504v-184h-504v-358z" />
    <glyph glyph-name="currency" unicode="&#xa4;" horiz-adv-x="1507" 
d="M1221 623l-7 -17l203 -170l-147 -176l-252 211h-8q-6 -2 -21 -2h-471q-14 0 -20 2h-11l-249 -211l-148 176l203 170l-6 17q-21 47 -21 98v244q0 53 21 100l6 14l-203 170l148 176l249 -211l11 3h20h471h21l10 -3l250 211l147 -176l-203 -170l7 -14q20 -44 20 -100v-244
q0 -54 -20 -98zM975 729v227q0 35 -24.5 59.5t-59.5 24.5h-275q-35 0 -59.5 -24.5t-24.5 -59.5v-227q0 -35 24.5 -59.5t59.5 -24.5h275q35 0 59.5 24.5t24.5 59.5z" />
    <glyph glyph-name="yen" unicode="&#xa5;" horiz-adv-x="1441" 
d="M1391 1434l-531 -779h309v-182h-319v-76h319v-184h-319v-213h-260v213h-320v184h320v76h-320v182h310l-531 779h275l397 -580l395 580h275z" />
    <glyph glyph-name="brokenbar" unicode="&#xa6;" horiz-adv-x="518" 
d="M389 834h-260v747h260v-747zM389 -188h-260v747h260v-747z" />
    <glyph glyph-name="section" unicode="&#xa7;" horiz-adv-x="1341" 
d="M961 1067q106 -9 178.5 -88t72.5 -186v-519q0 -114 -80 -194t-194 -80h-764v229h717q26 0 43.5 17.5t17.5 42.5v131h-563q-84 0 -147 51q-52 39 -82.5 97.5t-30.5 125.5v518q0 114 80 194.5t194 80.5h762v-230h-716q-25 0 -42.5 -17.5t-17.5 -43.5v-129h549h23zM952 633
v160q0 26 -17.5 43.5t-43.5 17.5h-502v-160q0 -26 17.5 -43.5t42.5 -17.5h503z" />
    <glyph glyph-name="dieresis" unicode="&#xa8;" horiz-adv-x="862" 
d="M346 1143h-289v243h289v-243zM805 1143h-291v243h291v-243z" />
    <glyph glyph-name="copyright" unicode="&#xa9;" horiz-adv-x="2031" 
d="M688 862q0 88 62 150.5t151 62.5h381v-182h-319q-26 0 -44 -18.5t-18 -43.5v-229q0 -25 18 -43t44 -18h319v-183h-381q-89 0 -151 62.5t-62 150.5v291zM1860 1016q71 -142 71 -299t-71 -299q-73 -143 -195 -250q-123 -105 -291 -166q-166 -63 -358 -63q-195 0 -361 63
q-170 63 -288 166q-125 106 -195 250q-72 144 -72 299t72 299q70 144 195 250q116 101 288 168q168 61 361 61q190 0 358 -61q175 -67 291 -168q119 -102 195 -250zM1640 487q54 105 54 230q0 124 -54 229q-53 112 -145 189q-89 80 -217 127q-124 47 -262 47
q-186 0 -340 -80q-158 -77 -248 -215q-92 -136 -92 -297t92 -297q87 -133 248 -215q156 -78 340 -78q140 0 262 45q128 47 217 127q93 78 145 188z" />
    <glyph glyph-name="ordfeminine" unicode="&#xaa;" horiz-adv-x="989" 
d="M885 1116v-158v-303h-215v88l-90 -88h-287q-83 0 -142 59t-59 142v62q0 83 58.5 140.5t142.5 57.5h377v121q0 19 -13 32t-32 13h-246q-19 0 -32 -13t-13 -32v-37h-209v33q0 83 59 142t142 59h358q83 0 142 -59t59 -142v-117zM670 840v137h-326q-19 0 -31 -13t-12 -32v-92
q0 -19 12 -31t31 -12h281q19 0 32 12t13 31z" />
    <glyph glyph-name="guillemotleft" unicode="&#xab;" horiz-adv-x="1144" 
d="M635 1092l-305 -396l305 -397h-260l-305 397l305 396h260zM1075 1092l-303 -396l303 -397h-258l-305 397l305 396h258z" />
    <glyph glyph-name="softhyphen" unicode="&#xad;" horiz-adv-x="0" 
 />
    <glyph glyph-name="registered" unicode="&#xae;" horiz-adv-x="1312" 
d="M770 909h-14l129 -143h-144l-114 143h-54v-143h-114v428h311q34 0 58 -25.5t24 -60.5v-113q0 -35 -24 -60.5t-58 -25.5zM737 1018v67q0 8 -5.5 13.5t-12.5 5.5h-146v-107h146q7 0 12.5 6.5t5.5 14.5zM1057 1313q164 -138 164 -332q0 -196 -166 -334q-168 -139 -400 -139
q-231 0 -399 139q-164 138 -164 334q0 194 164 332q168 139 399 139q234 0 402 -139zM938 727q117 105 117 254q0 147 -117 252q-114 102 -283 102q-165 0 -282 -102q-117 -108 -117 -252q0 -146 117 -254q117 -102 282 -102q169 0 283 102z" />
    <glyph glyph-name="degree" unicode="&#xb0;" horiz-adv-x="847" 
d="M553 1434q88 0 150.5 -62.5t62.5 -150.5v-109q0 -88 -62.5 -150.5t-150.5 -62.5h-260q-88 0 -150.5 62.5t-62.5 150.5v109q0 88 62.5 150.5t150.5 62.5h260zM553 1112v109q0 25 -17.5 42t-43.5 17h-138q-25 0 -43 -17t-18 -42v-109q0 -25 18 -42t43 -17h138q26 0 43.5 17
t17.5 42z" />
    <glyph glyph-name="plusminus" unicode="&#xb1;" horiz-adv-x="1089" 
d="M993 0h-899v213h899v-213zM422 381v229h-320v213h320v230h244v-230h321v-213h-321v-229h-244z" />
    <glyph glyph-name="twosuperior" unicode="&#xb2;" horiz-adv-x="1036" 
d="M424 700h514v-165h-840v161l586 400q18 12 18 30v103q0 15 -13 27t-30 12h-292q-18 0 -31.5 -12t-13.5 -27v-121h-224v154q0 71 57.5 121.5t139.5 50.5h436q81 0 138 -50.5t57 -121.5v-140q0 -86 -78 -139z" />
    <glyph glyph-name="threesuperior" unicode="&#xb3;" horiz-adv-x="1042" 
d="M809 987q58 -18 94.5 -62t36.5 -100v-118q0 -72 -57.5 -122t-139.5 -50h-448q-80 0 -137.5 50t-57.5 122v114h209v-82q0 -17 12 -28t31 -11h336q18 0 30.5 11t12.5 28v131q0 15 -13 26t-30 11h-244v152h222q18 0 30.5 12t12.5 27v131q0 15 -12.5 27t-30.5 12h-314
q-18 0 -30.5 -12t-12.5 -27v-82h-209v115q0 71 57.5 121.5t139.5 50.5h424q82 0 139.5 -50.5t57.5 -121.5v-121q0 -50 -29.5 -91t-79.5 -63z" />
    <glyph glyph-name="acute" unicode="&#xb4;" horiz-adv-x="636" 
d="M289 1434h305l-244 -291h-305z" />
    <glyph glyph-name="paragraph" unicode="&#xb6;" 
d="M379 1434h1145v-1434h-260v1204h-260v-1204h-259v557h-366q-114 0 -194.5 80t-80.5 194v328q0 114 80.5 194.5t194.5 80.5zM745 784v420h-321q-25 0 -42 -17.5t-17 -43.5v-297q0 -25 17.5 -43.5t41.5 -18.5h321z" />
    <glyph glyph-name="cedilla" unicode="&#xb8;" horiz-adv-x="241" 
d="M365 -53q51 0 86.5 -35.5t35.5 -85.5v-162q0 -51 -35.5 -86t-86.5 -35h-412v138h319v129h-243v251h184v-114h152z" />
    <glyph glyph-name="onesuperior" unicode="&#xb9;" horiz-adv-x="581" 
d="M70 1434h397v-899h-209v733h-188v166z" />
    <glyph glyph-name="ordmasculine" unicode="&#xba;" horiz-adv-x="1048" 
d="M670 1434q114 0 194 -80.5t80 -194.5v-350q0 -114 -80 -194t-194 -80h-291q-114 0 -194.5 80t-80.5 194v350q0 114 80.5 194.5t194.5 80.5h291zM715 762v442q0 26 -18 44t-44 18h-260q-25 0 -42 -18t-17 -44v-442q0 -25 17.5 -43.5t41.5 -18.5h260q26 0 44 18.5t18 43.5z
" />
    <glyph glyph-name="guillemotright" unicode="&#xbb;" horiz-adv-x="1144" 
d="M770 1092l303 -396l-303 -397h-260l305 397l-305 396h260zM328 1092l305 -396l-305 -397h-260l305 397l-305 396h260z" />
    <glyph glyph-name="onequarter" unicode="&#xbc;" horiz-adv-x="2019" 
d="M1292 1571h258l-1052 -1708h-258zM258 535v733h-188v166h397v-899h-209zM1708 555h209v-555h-209v205h-631v164l463 530h262l-454 -520h360v176z" />
    <glyph glyph-name="onehalf" unicode="&#xbd;" horiz-adv-x="2217" 
d="M1292 1571h258l-1052 -1708h-258zM258 535v733h-188v166h397v-899h-209zM1602 166h514v-166h-840v162l586 401q18 9 18 31v100q0 17 -12 28t-31 11h-293q-19 0 -32 -11t-13 -28v-121h-223v154q0 72 57.5 122t139.5 50h436q82 0 138 -50t56 -122v-139q0 -84 -78 -137z" />
    <glyph glyph-name="threequarters" unicode="&#xbe;" horiz-adv-x="2447" 
d="M1718 1571h260l-1052 -1708h-258zM942 707q0 -72 -57.5 -122t-139.5 -50h-446q-82 0 -139.5 50t-57.5 122v114h209v-82q0 -17 12 -28t31 -11h336q18 0 30.5 11t12.5 28v131q0 15 -13 26t-30 11h-244v152h222q18 0 30.5 12t12.5 27v131q0 15 -12.5 27t-30.5 12h-314
q-18 0 -30.5 -12t-12.5 -27v-82h-209v115q0 71 57.5 121.5t139.5 50.5h424q82 0 139.5 -50.5t57.5 -121.5v-121q0 -50 -29.5 -91t-79.5 -63q58 -18 94.5 -62t36.5 -100v-118zM2136 555h209v-555h-209v205h-631v164l463 530h260l-452 -520h360v176z" />
    <glyph glyph-name="questiondown" unicode="&#xbf;" horiz-adv-x="1343" 
d="M870 1204h-260v230h260v-230zM999 487h261v-213q0 -114 -80.5 -194t-194.5 -80h-610q-114 0 -194.5 80t-80.5 194v252q0 114 80.5 194.5t194.5 80.5h207q12 0 20 8.5t8 21.5v144h260v-236q0 -63 -44 -107t-107 -44h-299q-25 0 -42.5 -18.5t-17.5 -43.5v-221
q0 -26 17.5 -43.5t42.5 -17.5h520q25 0 42 17.5t17 43.5v182z" />
    <glyph glyph-name="Agrave" unicode="&#xc0;" horiz-adv-x="1624" 
d="M965 1434l639 -1434h-258l-158 350h-754l-155 -350h-261l641 1434h306zM543 594h536l-268 600zM963 1571h-306l-243 289h305z" />
    <glyph glyph-name="Aacute" unicode="&#xc1;" horiz-adv-x="1624" 
d="M965 1434l639 -1434h-258l-158 350h-754l-155 -350h-261l641 1434h306zM543 594h536l-268 600zM1210 1860l-245 -289h-303l243 289h305z" />
    <glyph glyph-name="Acircumflex" unicode="&#xc2;" horiz-adv-x="1624" 
d="M965 1434l639 -1434h-258l-158 350h-754l-155 -350h-261l641 1434h306zM543 594h536l-268 600zM813 1743l-151 -172h-291l282 289h320l282 -289h-290z" />
    <glyph glyph-name="Atilde" unicode="&#xc3;" horiz-adv-x="1624" 
d="M965 1434l639 -1434h-258l-158 350h-754l-155 -350h-261l641 1434h306zM543 594h536l-268 600zM584 1667v-96h-199v168q0 51 36 86t87 35h106l387 -123q15 -5 28 4t13 24v95h197v-166q0 -51 -35 -87t-86 -36h-106l-387 125q-15 4 -28 -5t-13 -24z" />
    <glyph glyph-name="Adieresis" unicode="&#xc4;" horiz-adv-x="1624" 
d="M965 1434l639 -1434h-258l-158 350h-754l-155 -350h-261l641 1434h306zM543 594h536l-268 600zM727 1571h-289v244h289v-244zM1186 1571h-291v244h291v-244z" />
    <glyph glyph-name="Aring" unicode="&#xc5;" horiz-adv-x="1624" 
d="M1024 1298l580 -1298h-258l-158 350h-754l-155 -350h-261l580 1298q-58 25 -93.5 78.5t-35.5 118.5v107q0 88 63 150.5t152 62.5h258q89 0 152 -62.5t63 -150.5v-107q0 -67 -37 -120t-96 -77zM684 1602v-107q0 -26 17 -43.5t42 -17.5h140q25 0 42 17.5t17 43.5v107
q0 25 -17 43t-42 18h-140q-25 0 -42 -18t-17 -43zM543 594h536l-268 600z" />
    <glyph glyph-name="AE" unicode="&#xc6;" horiz-adv-x="2361" 
d="M2275 1190h-901v-350h778v-246h-778v-350h901v-244h-1159v319h-565l-238 -319h-305l1061 1434h1206v-244zM1116 565v518l-385 -518h385z" />
    <glyph glyph-name="Ccedilla" unicode="&#xc7;" horiz-adv-x="1353" 
d="M451 1190q-25 0 -42.5 -18t-17.5 -44v-823q0 -26 17.5 -43.5t42.5 -17.5h839v-244h-504v-70h154q51 0 86 -34.5t35 -85.5v-160q0 -51 -35 -87t-86 -36h-412v137h320v129h-244v207h-198q-114 0 -194.5 80t-80.5 194v885q0 114 80.5 194.5t194.5 80.5h884v-244h-839z" />
    <glyph glyph-name="Egrave" unicode="&#xc8;" horiz-adv-x="1376" 
d="M451 1190q-25 0 -42.5 -18t-17.5 -44v-288h776v-246h-776v-289q0 -26 17.5 -43.5t42.5 -17.5h839v-244h-884q-114 0 -194.5 80t-80.5 194v885q0 114 80.5 194.5t194.5 80.5h884v-244h-839zM985 1571h-305l-244 289h305z" />
    <glyph glyph-name="Eacute" unicode="&#xc9;" horiz-adv-x="1376" 
d="M451 1190q-25 0 -42.5 -18t-17.5 -44v-288h776v-246h-776v-289q0 -26 17.5 -43.5t42.5 -17.5h839v-244h-884q-114 0 -194.5 80t-80.5 194v885q0 114 80.5 194.5t194.5 80.5h884v-244h-839zM1092 1860l-244 -289h-305l243 289h306z" />
    <glyph glyph-name="Ecircumflex" unicode="&#xca;" horiz-adv-x="1376" 
d="M451 1190q-25 0 -42.5 -18t-17.5 -44v-288h776v-246h-776v-289q0 -26 17.5 -43.5t42.5 -17.5h839v-244h-884q-114 0 -194.5 80t-80.5 194v885q0 114 80.5 194.5t194.5 80.5h884v-244h-839zM711 1743l-152 -172h-291l283 289h319l283 -289h-291z" />
    <glyph glyph-name="Edieresis" unicode="&#xcb;" horiz-adv-x="1376" 
d="M451 1190q-25 0 -42.5 -18t-17.5 -44v-288h776v-246h-776v-289q0 -26 17.5 -43.5t42.5 -17.5h839v-244h-884q-114 0 -194.5 80t-80.5 194v885q0 114 80.5 194.5t194.5 80.5h884v-244h-839zM657 1571h-290v244h290v-244zM1114 1571h-289v244h289v-244z" />
    <glyph glyph-name="Igrave" unicode="&#xcc;" horiz-adv-x="548" 
d="M403 0h-260v1434h260v-1434zM182 1860l244 -289h-305l-244 289h305z" />
    <glyph glyph-name="Iacute" unicode="&#xcd;" horiz-adv-x="548" 
d="M403 0h-260v1434h260v-1434zM365 1860h305l-244 -289h-305z" />
    <glyph glyph-name="Icircumflex" unicode="&#xce;" horiz-adv-x="544" 
d="M401 0h-258v1434h258v-1434zM432 1860l283 -289h-291l-152 172l-153 -172h-289l283 289h319z" />
    <glyph glyph-name="Idieresis" unicode="&#xcf;" horiz-adv-x="546" 
d="M403 0h-260v1434h260v-1434zM188 1571h-288v244h288v-244zM647 1571h-291v244h291v-244z" />
    <glyph glyph-name="Eth" unicode="&#xd0;" horiz-adv-x="1720" 
d="M1178 1434q177 0 301.5 -125t124.5 -303v-578q0 -178 -124.5 -303t-301.5 -125h-963v618h-152v197h152v619h963zM1346 457v520q0 88 -63.5 150.5t-152.5 62.5h-655v-375h473v-197h-473v-374h655q89 0 152.5 62.5t63.5 150.5z" />
    <glyph glyph-name="Ntilde" unicode="&#xd1;" horiz-adv-x="1691" 
d="M1288 1434h258v-1434h-258l-885 1038v-1038h-260v1434h260l885 -1039v1039zM616 1667v-96h-198v168q0 51 36 86t87 35h106l387 -123q14 -5 26.5 4t12.5 24v95h199v-166q0 -51 -36 -87t-87 -36h-107l-387 125q-14 5 -26.5 -4.5t-12.5 -24.5z" />
    <glyph glyph-name="Ograve" unicode="&#xd2;" 
d="M1260 1434q114 0 194 -80.5t80 -194.5v-885q0 -114 -80 -194t-194 -80h-854q-114 0 -194.5 80t-80.5 194v885q0 114 80.5 194.5t194.5 80.5h854zM1276 305v823q0 26 -18.5 44t-43.5 18h-763q-25 0 -42.5 -18t-17.5 -44v-823q0 -26 17.5 -43.5t42.5 -17.5h763
q25 0 43.5 17.5t18.5 43.5zM999 1571h-303l-245 289h305z" />
    <glyph glyph-name="Oacute" unicode="&#xd3;" 
d="M1260 1434q114 0 194 -80.5t80 -194.5v-885q0 -114 -80 -194t-194 -80h-854q-114 0 -194.5 80t-80.5 194v885q0 114 80.5 194.5t194.5 80.5h854zM1276 305v823q0 26 -18.5 44t-43.5 18h-763q-25 0 -42.5 -18t-17.5 -44v-823q0 -26 17.5 -43.5t42.5 -17.5h763
q25 0 43.5 17.5t18.5 43.5zM1198 1860l-244 -289h-305l244 289h305z" />
    <glyph glyph-name="Ocircumflex" unicode="&#xd4;" 
d="M1260 1434q114 0 194 -80.5t80 -194.5v-885q0 -114 -80 -194t-194 -80h-854q-114 0 -194.5 80t-80.5 194v885q0 114 80.5 194.5t194.5 80.5h854zM1276 305v823q0 26 -18.5 44t-43.5 18h-763q-25 0 -42.5 -18t-17.5 -44v-823q0 -26 17.5 -43.5t42.5 -17.5h763
q25 0 43.5 17.5t18.5 43.5zM834 1743l-154 -172h-289l281 289h321l283 -289h-291z" />
    <glyph glyph-name="Otilde" unicode="&#xd5;" 
d="M1260 1434q114 0 194 -80.5t80 -194.5v-885q0 -114 -80 -194t-194 -80h-854q-114 0 -194.5 80t-80.5 194v885q0 114 80.5 194.5t194.5 80.5h854zM1276 305v823q0 26 -18.5 44t-43.5 18h-763q-25 0 -42.5 -18t-17.5 -44v-823q0 -26 17.5 -43.5t42.5 -17.5h763
q25 0 43.5 17.5t18.5 43.5zM604 1667v-96h-198v168q0 51 35.5 86t86.5 35h107l387 -123q14 -5 26.5 4t12.5 24v95h199v-166q0 -51 -36 -87t-87 -36h-107l-387 125q-14 5 -26.5 -4.5t-12.5 -24.5z" />
    <glyph glyph-name="Odieresis" unicode="&#xd6;" 
d="M1260 1434q114 0 194 -80.5t80 -194.5v-885q0 -114 -80 -194t-194 -80h-854q-114 0 -194.5 80t-80.5 194v885q0 114 80.5 194.5t194.5 80.5h854zM1276 305v823q0 26 -18.5 44t-43.5 18h-763q-25 0 -42.5 -18t-17.5 -44v-823q0 -26 17.5 -43.5t42.5 -17.5h763
q25 0 43.5 17.5t18.5 43.5zM750 1571h-291v244h291v-244zM1206 1571h-288v244h288v-244z" />
    <glyph glyph-name="multiply" unicode="&#xd7;" horiz-adv-x="1179" 
d="M1092 940l-306 -223l306 -225l-129 -195l-373 274l-373 -274l-131 195l305 225l-305 223l131 195l373 -273l373 273z" />
    <glyph glyph-name="Oslash" unicode="&#xd8;" horiz-adv-x="1669" 
d="M1444 1362q92 -79 92 -203v-885q0 -114 -80 -194t-194 -80h-807l-148 -203l-184 135l100 140q-90 80 -90 202v885q0 114 80.5 194.5t194.5 80.5h804l148 202l184 -135zM391 303l645 887h-583q-25 0 -43.5 -18t-18.5 -44v-823v-2zM1276 305v823v2l-643 -886h581
q26 0 44 17.5t18 43.5z" />
    <glyph glyph-name="Ugrave" unicode="&#xd9;" horiz-adv-x="1679" 
d="M1282 1434h258v-1160q0 -114 -80 -194t-194 -80h-854q-114 0 -194.5 80t-80.5 194v1160h260v-1129q0 -26 17.5 -43.5t42.5 -17.5h764q25 0 43 17.5t18 43.5v1129zM1036 1571h-305l-244 289h306z" />
    <glyph glyph-name="Uacute" unicode="&#xda;" horiz-adv-x="1679" 
d="M1282 1434h258v-1160q0 -114 -80 -194t-194 -80h-854q-114 0 -194.5 80t-80.5 194v1160h260v-1129q0 -26 17.5 -43.5t42.5 -17.5h764q25 0 43 17.5t18 43.5v1129zM1190 1860l-244 -289h-305l244 289h305z" />
    <glyph glyph-name="Ucircumflex" unicode="&#xdb;" horiz-adv-x="1679" 
d="M1282 1434h258v-1160q0 -114 -80 -194t-194 -80h-854q-114 0 -194.5 80t-80.5 194v1160h260v-1129q0 -26 17.5 -43.5t42.5 -17.5h764q25 0 43 17.5t18 43.5v1129zM840 1743l-154 -172h-289l281 289h321l283 -289h-291z" />
    <glyph glyph-name="Udieresis" unicode="&#xdc;" horiz-adv-x="1679" 
d="M1282 1434h258v-1160q0 -114 -80 -194t-194 -80h-854q-114 0 -194.5 80t-80.5 194v1160h260v-1129q0 -26 17.5 -43.5t42.5 -17.5h764q25 0 43 17.5t18 43.5v1129zM756 1571h-291v244h291v-244zM1212 1571h-288v244h288v-244z" />
    <glyph glyph-name="Yacute" unicode="&#xdd;" horiz-adv-x="1417" 
d="M1126 1434h283l-559 -897l-12 -19v-518h-260v518l-11 19l-561 897h283l420 -670zM1059 1860l-244 -289h-305l244 289h305z" />
    <glyph glyph-name="Thorn" unicode="&#xde;" horiz-adv-x="1329" 
d="M967 1182q114 0 194 -80.5t80 -194.5v-381q0 -114 -80 -194t-194 -80h-564v-252h-260v1434h260v-252h564zM983 541v352q0 25 -18 42t-43 17h-519v-471h519q25 0 43 17.5t18 42.5z" />
    <glyph glyph-name="germandbls" unicode="&#xdf;" horiz-adv-x="1413" 
d="M1098 766q96 -19 159.5 -95t63.5 -175v-222q0 -114 -80 -194t-194 -80h-429v229h381q26 0 44 17.5t18 42.5v282q0 26 -18 44t-44 18h-350v229h260q25 0 43.5 17.5t18.5 42.5v221q0 26 -18.5 43.5t-43.5 17.5h-458q-25 0 -42.5 -17.5t-17.5 -43.5v-1143h-260v1159
q0 114 80.5 194.5t194.5 80.5h548q114 0 194.5 -80.5t80.5 -194.5v-160q0 -74 -35.5 -135.5t-95.5 -97.5z" />
    <glyph glyph-name="agrave" unicode="&#xe0;" horiz-adv-x="1234" 
d="M838 1067q114 0 194 -80t80 -194v-793h-260v123l-121 -123h-366q-114 0 -194.5 80t-80.5 194v84q0 114 80.5 194.5t194.5 80.5h487v160q0 26 -17 43.5t-42 17.5h-336q-26 0 -44 -17.5t-18 -43.5v-31h-260v31q0 114 80.5 194t194.5 80h428zM852 274v146h-442
q-25 0 -42.5 -18.5t-17.5 -43.5v-84q0 -25 17.5 -43t42.5 -18h383q25 0 42 18t17 43zM846 1174h-305l-244 290h303z" />
    <glyph glyph-name="aacute" unicode="&#xe1;" horiz-adv-x="1234" 
d="M838 1067q114 0 194 -80t80 -194v-793h-260v123l-121 -123h-366q-114 0 -194.5 80t-80.5 194v84q0 114 80.5 194.5t194.5 80.5h487v160q0 26 -17 43.5t-42 17.5h-336q-26 0 -44 -17.5t-18 -43.5v-31h-260v31q0 114 80.5 194t194.5 80h428zM852 274v146h-442
q-25 0 -42.5 -18.5t-17.5 -43.5v-84q0 -25 17.5 -43t42.5 -18h383q25 0 42 18t17 43zM1022 1464l-244 -290h-305l244 290h305z" />
    <glyph glyph-name="acircumflex" unicode="&#xe2;" horiz-adv-x="1234" 
d="M838 1067q114 0 194 -80t80 -194v-793h-260v123l-121 -123h-366q-114 0 -194.5 80t-80.5 194v84q0 114 80.5 194.5t194.5 80.5h487v160q0 26 -17 43.5t-42 17.5h-336q-26 0 -44 -17.5t-18 -43.5v-31h-260v31q0 114 80.5 194t194.5 80h428zM852 274v146h-442
q-25 0 -42.5 -18.5t-17.5 -43.5v-84q0 -25 17.5 -43t42.5 -18h383q25 0 42 18t17 43zM600 1346l-151 -172h-289l280 290h322l280 -290h-288z" />
    <glyph glyph-name="atilde" unicode="&#xe3;" horiz-adv-x="1234" 
d="M838 1067q114 0 194 -80t80 -194v-793h-260v123l-121 -123h-366q-114 0 -194.5 80t-80.5 194v84q0 114 80.5 194.5t194.5 80.5h487v160q0 26 -17 43.5t-42 17.5h-336q-26 0 -44 -17.5t-18 -43.5v-31h-260v31q0 114 80.5 194t194.5 80h428zM852 274v146h-442
q-25 0 -42.5 -18.5t-17.5 -43.5v-84q0 -25 17.5 -43t42.5 -18h383q25 0 42 18t17 43zM373 1270v-96h-199v167q0 51 36 87t87 36h106l388 -125q14 -5 26 4.5t12 24.5v96h199v-168q0 -51 -36 -86.5t-87 -35.5h-106l-387 124q-14 5 -26.5 -4t-12.5 -24z" />
    <glyph glyph-name="adieresis" unicode="&#xe4;" horiz-adv-x="1234" 
d="M838 1067q114 0 194 -80t80 -194v-793h-260v123l-121 -123h-366q-114 0 -194.5 80t-80.5 194v84q0 114 80.5 194.5t194.5 80.5h487v160q0 26 -17 43.5t-42 17.5h-336q-26 0 -44 -17.5t-18 -43.5v-31h-260v31q0 114 80.5 194t194.5 80h428zM852 274v146h-442
q-25 0 -42.5 -18.5t-17.5 -43.5v-84q0 -25 17.5 -43t42.5 -18h383q25 0 42 18t17 43zM518 1174h-291v245h291v-245zM975 1174h-291v245h291v-245z" />
    <glyph glyph-name="aring" unicode="&#xe5;" horiz-adv-x="1234" 
d="M838 1067q114 0 194 -80t80 -194v-793h-260v123l-121 -123h-366q-114 0 -194.5 80t-80.5 194v84q0 114 80.5 194.5t194.5 80.5h487v160q0 26 -17 43.5t-42 17.5h-336q-26 0 -44 -17.5t-18 -43.5v-31h-260v31q0 114 80.5 194t194.5 80h428zM852 274v146h-442
q-25 0 -42.5 -18.5t-17.5 -43.5v-84q0 -25 17.5 -43t42.5 -18h383q25 0 42 18t17 43zM471 1174q-88 0 -150.5 63t-62.5 152v75q0 88 62.5 150.5t150.5 62.5h260q88 0 150.5 -62.5t62.5 -150.5v-75q0 -89 -62.5 -152t-150.5 -63h-260zM471 1464v-75q0 -26 18 -44t43 -18h138
q25 0 43 18t18 44v75q0 25 -18 43.5t-43 18.5h-138q-25 0 -43 -18.5t-18 -43.5z" />
    <glyph glyph-name="ae" unicode="&#xe6;" horiz-adv-x="1982" 
d="M1112 434v-160q0 -25 18 -43t44 -18h669v-213h-717q-78 0 -143.5 41.5t-99.5 110.5l-152 -152h-366q-114 0 -194.5 80t-80.5 194v84q0 114 80.5 194.5t194.5 80.5h487v221h-395q-26 0 -44 -17.5t-18 -43.5v-31h-260v31q0 114 80.5 194t194.5 80h1189q114 0 194.5 -80
t80.5 -194v-359h-762zM1112 854v-221h504v160q0 26 -18.5 43.5t-43.5 17.5h-442zM852 274v146h-442q-25 0 -42.5 -18.5t-17.5 -43.5v-84q0 -25 17.5 -43t42.5 -18h383q25 0 42 18t17 43z" />
    <glyph glyph-name="ccedilla" unicode="&#xe7;" horiz-adv-x="1046" 
d="M434 854q-25 0 -42 -17.5t-17 -43.5v-519q0 -25 17 -43t42 -18h535v-213h-373v-70h152q51 0 86.5 -34.5t35.5 -85.5v-160q0 -51 -35.5 -87t-86.5 -36h-412v137h319v129h-243v207h-23q-114 0 -194 80t-80 194v519q0 114 80 194t194 80h580v-213h-535z" />
    <glyph glyph-name="egrave" unicode="&#xe8;" horiz-adv-x="1243" 
d="M1137 434h-762v-160q0 -25 17 -43t42 -18h672v-213h-717q-114 0 -194 80t-80 194v519q0 114 80 194t194 80h473q114 0 194.5 -80t80.5 -194v-359zM375 793v-160h502v160q0 26 -17.5 43.5t-42.5 17.5h-383q-25 0 -42 -17.5t-17 -43.5zM823 1174h-305l-244 290h306z" />
    <glyph glyph-name="eacute" unicode="&#xe9;" horiz-adv-x="1243" 
d="M1137 434h-762v-160q0 -25 17 -43t42 -18h672v-213h-717q-114 0 -194 80t-80 194v519q0 114 80 194t194 80h473q114 0 194.5 -80t80.5 -194v-359zM375 793v-160h502v160q0 26 -17.5 43.5t-42.5 17.5h-383q-25 0 -42 -17.5t-17 -43.5zM977 1464l-244 -290h-305l244 290
h305z" />
    <glyph glyph-name="ecircumflex" unicode="&#xea;" horiz-adv-x="1243" 
d="M1137 434h-762v-160q0 -25 17 -43t42 -18h672v-213h-717q-114 0 -194 80t-80 194v519q0 114 80 194t194 80h473q114 0 194.5 -80t80.5 -194v-359zM375 793v-160h502v160q0 26 -17.5 43.5t-42.5 17.5h-383q-25 0 -42 -17.5t-17 -43.5zM625 1346l-152 -172h-289l281 290
h321l281 -290h-289z" />
    <glyph glyph-name="edieresis" unicode="&#xeb;" horiz-adv-x="1243" 
d="M1137 434h-762v-160q0 -25 17 -43t42 -18h672v-213h-717q-114 0 -194 80t-80 194v519q0 114 80 194t194 80h473q114 0 194.5 -80t80.5 -194v-359zM375 793v-160h502v160q0 26 -17.5 43.5t-42.5 17.5h-383q-25 0 -42 -17.5t-17 -43.5zM543 1174h-291v245h291v-245z
M999 1174h-290v245h290v-245z" />
    <glyph glyph-name="igrave" unicode="&#xec;" horiz-adv-x="524" 
d="M391 0h-260v1067h260v-1067zM170 1464l244 -290h-305l-244 290h305z" />
    <glyph glyph-name="iacute" unicode="&#xed;" horiz-adv-x="524" 
d="M391 0h-260v1067h260v-1067zM352 1464h305l-243 -290h-305z" />
    <glyph glyph-name="icircumflex" unicode="&#xee;" horiz-adv-x="520" 
d="M389 0h-258v1067h258v-1067zM420 1464l282 -290h-290l-152 172l-154 -172h-288l282 290h320z" />
    <glyph glyph-name="idieresis" unicode="&#xef;" horiz-adv-x="522" 
d="M391 0h-260v1067h260v-1067zM176 1174h-289v245h289v-245zM635 1174h-291v245h291v-245z" />
    <glyph glyph-name="eth" unicode="&#xf0;" horiz-adv-x="1314" 
d="M1133 1126q49 -58 49 -137v-989h-258v121l-123 -121h-412q-114 0 -194 80t-80 194v519q0 114 80 194t194 80h412l123 -123v100q0 20 -15 39l-92 111l-397 -51v131l299 39l-101 121h259l75 -93l230 31v-129l-131 -18zM924 274v519q0 25 -18.5 43t-43.5 18h-428
q-25 0 -42 -18t-17 -43v-519q0 -26 17 -43.5t42 -17.5h428q25 0 43.5 17.5t18.5 43.5z" />
    <glyph glyph-name="ntilde" unicode="&#xf1;" horiz-adv-x="1323" 
d="M848 1067q165 0 257.5 -77.5t92.5 -196.5v-793h-258v793q0 26 -18 43.5t-43 17.5h-428q-25 0 -42.5 -17.5t-17.5 -43.5v-793h-260v1067h260v-121l121 121h336zM436 1270v-96h-198v167q0 51 35.5 87t86.5 36h107l387 -125q14 -5 26.5 4.5t12.5 24.5v96h199v-168
q0 -51 -35.5 -86.5t-85.5 -35.5h-109l-387 124q-14 5 -26.5 -4t-12.5 -24z" />
    <glyph glyph-name="ograve" unicode="&#xf2;" horiz-adv-x="1298" 
d="M907 1067q114 0 194.5 -80t80.5 -194v-519q0 -114 -80.5 -194t-194.5 -80h-518q-114 0 -194 80t-80 194v519q0 114 80 194t194 80h518zM924 274v519q0 26 -18.5 43.5t-43.5 17.5h-428q-25 0 -42 -17.5t-17 -43.5v-519q0 -25 17 -43t42 -18h428q25 0 43.5 18t18.5 43z
M831 1174h-305l-243 290h305z" />
    <glyph glyph-name="oacute" unicode="&#xf3;" horiz-adv-x="1298" 
d="M907 1067q114 0 194.5 -80t80.5 -194v-519q0 -114 -80.5 -194t-194.5 -80h-518q-114 0 -194 80t-80 194v519q0 114 80 194t194 80h518zM924 274v519q0 26 -18.5 43.5t-43.5 17.5h-428q-25 0 -42 -17.5t-17 -43.5v-519q0 -25 17 -43t42 -18h428q25 0 43.5 18t18.5 43z
M1014 1464l-244 -290h-305l244 290h305z" />
    <glyph glyph-name="ocircumflex" unicode="&#xf4;" horiz-adv-x="1298" 
d="M907 1067q114 0 194.5 -80t80.5 -194v-519q0 -114 -80.5 -194t-194.5 -80h-518q-114 0 -194 80t-80 194v519q0 114 80 194t194 80h518zM924 274v519q0 26 -18.5 43.5t-43.5 17.5h-428q-25 0 -42 -17.5t-17 -43.5v-519q0 -25 17 -43t42 -18h428q25 0 43.5 18t18.5 43z
M649 1346l-153 -172h-289l280 290h322l283 -290h-291z" />
    <glyph glyph-name="otilde" unicode="&#xf5;" horiz-adv-x="1298" 
d="M907 1067q114 0 194.5 -80t80.5 -194v-519q0 -114 -80.5 -194t-194.5 -80h-518q-114 0 -194 80t-80 194v519q0 114 80 194t194 80h518zM924 274v519q0 26 -18.5 43.5t-43.5 17.5h-428q-25 0 -42 -17.5t-17 -43.5v-519q0 -25 17 -43t42 -18h428q25 0 43.5 18t18.5 43z
M420 1270v-96h-199v167q0 51 36 87t87 36h107l387 -125q15 -4 27 5t12 24v96h198v-168q0 -51 -35.5 -86.5t-85.5 -35.5h-108l-387 124q-14 5 -26.5 -4t-12.5 -24z" />
    <glyph glyph-name="odieresis" unicode="&#xf6;" horiz-adv-x="1298" 
d="M907 1067q114 0 194.5 -80t80.5 -194v-519q0 -114 -80.5 -194t-194.5 -80h-518q-114 0 -194 80t-80 194v519q0 114 80 194t194 80h518zM924 274v519q0 26 -18.5 43.5t-43.5 17.5h-428q-25 0 -42 -17.5t-17 -43.5v-519q0 -25 17 -43t42 -18h428q25 0 43.5 18t18.5 43z
M565 1174h-291v245h291v-245zM1022 1174h-289v245h289v-245z" />
    <glyph glyph-name="divide" unicode="&#xf7;" horiz-adv-x="1198" 
d="M1141 608h-1084v215h1084v-215zM760 952h-305v244h305v-244zM760 236h-305v243h305v-243z" />
    <glyph glyph-name="oslash" unicode="&#xf8;" horiz-adv-x="1302" 
d="M1214 1143l-112 -156q82 -79 82 -194v-519q0 -114 -80.5 -194t-194.5 -80h-518h-6l-139 -190l-160 116l113 154q-82 79 -82 194v519q0 114 80 194t194 80h518h6l140 190zM375 324l385 530h-324q-25 0 -43 -17.5t-18 -43.5v-469zM926 274v469l-385 -530h323q25 0 43.5 18
t18.5 43z" />
    <glyph glyph-name="ugrave" unicode="&#xf9;" horiz-adv-x="1323" 
d="M932 1067h258v-1067h-258v123l-123 -123h-336q-165 0 -257.5 77.5t-92.5 196.5v793h260v-793q0 -25 17 -43t42 -18h428q25 0 43.5 18t18.5 43v793zM840 1174h-305l-244 290h305z" />
    <glyph glyph-name="uacute" unicode="&#xfa;" horiz-adv-x="1323" 
d="M932 1067h258v-1067h-258v123l-123 -123h-336q-165 0 -257.5 77.5t-92.5 196.5v793h260v-793q0 -25 17 -43t42 -18h428q25 0 43.5 18t18.5 43v793zM1006 1464l-244 -290h-305l245 290h304z" />
    <glyph glyph-name="ucircumflex" unicode="&#xfb;" horiz-adv-x="1323" 
d="M932 1067h258v-1067h-258v123l-123 -123h-336q-165 0 -257.5 77.5t-92.5 196.5v793h260v-793q0 -25 17 -43t42 -18h428q25 0 43.5 18t18.5 43v793zM657 1346l-153 -172h-289l281 290h321l283 -290h-291z" />
    <glyph glyph-name="udieresis" unicode="&#xfc;" horiz-adv-x="1323" 
d="M932 1067h258v-1067h-258v123l-123 -123h-336q-165 0 -257.5 77.5t-92.5 196.5v793h260v-793q0 -25 17 -43t42 -18h428q25 0 43.5 18t18.5 43v793zM573 1174h-290v245h290v-245zM1030 1174h-289v245h289v-245z" />
    <glyph glyph-name="yacute" unicode="&#xfd;" horiz-adv-x="1308" 
d="M1012 1067h268l-588 -1272q-32 -74 -100 -118t-150 -44h-338v230h314q38 0 55 35l47 102l-491 1067h266l358 -778zM1020 1464l-244 -290h-305l244 290h305z" />
    <glyph glyph-name="thorn" unicode="&#xfe;" horiz-adv-x="1314" 
d="M924 1067q114 0 194 -80t80 -194v-519q0 -114 -80 -194t-194 -80h-412l-121 121v-488h-260v1801h260v-490l121 123h412zM940 274v519q0 25 -18 43t-43 18h-428q-25 0 -42.5 -18t-17.5 -43v-519q0 -26 17.5 -43.5t42.5 -17.5h428q25 0 43 17.5t18 43.5z" />
    <glyph glyph-name="ydieresis" unicode="&#xff;" horiz-adv-x="1308" 
d="M1012 1067h268l-588 -1272q-32 -74 -100 -118t-150 -44h-338v230h314q38 0 55 35l47 102l-491 1067h266l358 -778zM569 1174h-288v245h288v-245zM1028 1174h-291v245h291v-245z" />
    <glyph glyph-name="Lslash" unicode="&#x141;" horiz-adv-x="1312" 
d="M477 244h809v-244h-1069v479l-151 -90v213l151 90v742h260v-588l443 260v-213l-443 -262v-387z" />
    <glyph glyph-name="lslash" unicode="&#x142;" horiz-adv-x="815" 
d="M748 899l-275 -205v-450q0 -26 18 -44t44 -18h182v-182h-228q-115 0 -195.5 80t-80.5 194v228l-152 -113v205l152 115v725h260v-533l275 205v-207z" />
    <glyph glyph-name="OE" unicode="&#x152;" horiz-adv-x="2277" 
d="M2189 1190h-899v-352h778v-244h-778v-350h899v-244h-1783q-114 0 -194.5 80t-80.5 194v885q0 114 80.5 194.5t194.5 80.5h1783v-244zM1030 244v946h-579q-25 0 -42.5 -18.5t-17.5 -43.5v-823q0 -26 17.5 -43.5t42.5 -17.5h579z" />
    <glyph glyph-name="oe" unicode="&#x153;" horiz-adv-x="1961" 
d="M1853 434h-761v-160q0 -26 17 -43.5t42 -17.5h672v-213h-1434q-114 0 -194 80t-80 194v519q0 114 80 194t194 80h1190q114 0 194 -80t80 -194v-359zM1092 793v-160h501v160q0 25 -17 43t-42 18h-383q-25 0 -42 -18t-17 -43zM831 213v641h-397q-25 0 -42 -18t-17 -43v-519
q0 -26 17 -43.5t42 -17.5h397z" />
    <glyph glyph-name="Scaron" unicode="&#x160;" horiz-adv-x="1462" 
d="M1083 840q114 0 194.5 -80.5t80.5 -194.5v-291q0 -114 -80.5 -194t-194.5 -80h-962v244h915q26 0 44 17.5t18 43.5v230q0 25 -18 42t-44 17h-655q-114 0 -194.5 80t-80.5 194v291q0 114 80.5 194.5t194.5 80.5h946v-244h-901q-25 0 -42 -18t-17 -44v-229q0 -25 17 -42
t42 -17h657zM893 1571h-322l-282 289h291l151 -170l154 170h289z" />
    <glyph glyph-name="scaron" unicode="&#x161;" horiz-adv-x="1210" 
d="M844 643q114 0 194 -80t80 -194v-95q0 -114 -80 -194t-194 -80h-717v213h672q25 0 42 17.5t17 43.5v88q0 25 -17 42.5t-42 17.5h-428q-114 0 -194.5 80t-80.5 194v97q0 114 80.5 194t194.5 80h702v-213h-657q-25 0 -42.5 -18t-17.5 -43v-88q0 -25 17.5 -43.5t42.5 -18.5
h428zM768 1174h-322l-280 290h289l151 -172l154 172h289z" />
    <glyph glyph-name="Ydieresis" unicode="&#x178;" horiz-adv-x="1417" 
d="M1126 1434h283l-559 -897l-12 -19v-518h-260v518l-11 19l-561 897h283l420 -670zM625 1571h-291v244h291v-244zM1081 1571h-288v244h288v-244z" />
    <glyph glyph-name="Zcaron" unicode="&#x17d;" horiz-adv-x="1392" 
d="M92 1434h1235v-199l-883 -991h869v-244h-1252v199l883 991h-852v244zM854 1571h-319l-283 289h291l151 -170l154 170h289z" />
    <glyph glyph-name="zcaron" unicode="&#x17e;" horiz-adv-x="1148" 
d="M418 213h657v-213h-1005v168l643 686h-613v213h961v-168zM733 1174h-319l-283 290h289l153 -172l152 172h291z" />
    <glyph glyph-name="circumflexmod" unicode="&#x2c6;" horiz-adv-x="970" 
d="M645 1434l283 -291h-291l-152 172l-153 -172h-289l283 291h319z" />
    <glyph glyph-name="caronmod" unicode="&#x2c7;" horiz-adv-x="962" 
d="M633 1434h291l-283 -291h-319l-283 291h289l153 -172z" />
    <glyph glyph-name="tildemod" unicode="&#x2dc;" horiz-adv-x="978" 
d="M717 1434h198v-168q0 -51 -35.5 -87t-86.5 -36h-107l-387 125q-14 5 -26.5 -4.5t-12.5 -24.5v-96h-199v168q0 51 36 87t87 36h107l387 -125q14 -5 26.5 4t12.5 24v97z" />
    <glyph glyph-name="endash" unicode="&#x2013;" horiz-adv-x="1189" 
d="M1137 616h-1084v213h1084v-213z" />
    <glyph glyph-name="emdash" unicode="&#x2014;" horiz-adv-x="1449" 
d="M1395 616h-1342v213h1342v-213z" />
    <glyph glyph-name="quoteleft" unicode="&#x2018;" horiz-adv-x="481" 
d="M410 1434l-136 -260h105v-244h-305v182l28 62l125 260h183z" />
    <glyph glyph-name="quoteright" unicode="&#x2019;" horiz-adv-x="481" 
d="M102 1434h306v-185l-29 -61l-125 -258h-182l135 258h-105v246z" />
    <glyph glyph-name="quotesinglbase" unicode="&#x201a;" horiz-adv-x="421" 
d="M59 244h306v-183l-29 -61l-125 -258h-182l135 258h-105v244z" />
    <glyph glyph-name="quotereversed" unicode="&#x201b;" horiz-adv-x="481" 
d="M274 1188l136 -258h-183l-125 258l-28 61v183h305v-244h-105z" />
    <glyph glyph-name="quotedblleft" unicode="&#x201c;" horiz-adv-x="940" 
d="M866 1434l-135 -260h105v-244h-306v182l31 62l123 260h182zM227 1434h183l-136 -260h105v-244h-305v182l28 62z" />
    <glyph glyph-name="quotedblright" unicode="&#x201d;" horiz-adv-x="940" 
d="M102 1188v246h306v-185l-29 -61l-125 -258h-182l135 258h-105zM559 1434h305v-185l-28 -61l-123 -258h-185l138 258h-107v246z" />
    <glyph glyph-name="quotedblbase" unicode="&#x201e;" horiz-adv-x="880" 
d="M59 0v244h306v-183l-29 -61l-125 -258h-182l135 258h-105zM516 244h305v-183l-28 -61l-123 -258h-185l138 258h-107v244z" />
    <glyph glyph-name="dagger" unicode="&#x2020;" horiz-adv-x="1150" 
d="M705 1067h372v-213h-372v-854h-261v854h-372v213h372v367h261v-367z" />
    <glyph glyph-name="daggerdbl" unicode="&#x2021;" horiz-adv-x="1220" 
d="M1112 854h-373v-274h373v-213h-373v-367h-260v367h-373v213h373v274h-373v213h373v367h260v-367h373v-213z" />
    <glyph glyph-name="bullet" unicode="&#x2022;" horiz-adv-x="466" 
d="M401 571h-335v306h335v-306z" />
    <glyph glyph-name="ellipsis" unicode="&#x2026;" horiz-adv-x="1544" 
d="M391 0h-336v229h336v-229zM1489 0h-336v229h336v-229zM940 0h-336v229h336v-229z" />
    <glyph glyph-name="perthousand" unicode="&#x2030;" horiz-adv-x="3674" 
d="M1614 1571h260l-901 -1708h-258zM1034 809q0 -114 -80 -194t-194 -80h-381q-114 0 -194.5 80t-80.5 194v350q0 114 80.5 194.5t194.5 80.5h381q114 0 194 -80.5t80 -194.5v-350zM715 731q25 0 43 18.5t18 43.5v381q0 26 -18 43.5t-43 17.5h-291q-25 0 -42 -17.5
t-17 -43.5v-381q0 -25 17.5 -43.5t41.5 -18.5h291zM2210 899q114 0 194 -80t80 -194v-351q0 -114 -80 -194t-194 -80h-383q-114 0 -194.5 80t-80.5 194v351q0 114 80.5 194t194.5 80h383zM2224 260v381q0 25 -17.5 42t-43.5 17h-289q-26 0 -44 -17t-18 -42v-381
q0 -26 18 -43.5t44 -17.5h289q26 0 43.5 17.5t17.5 43.5zM3291 899q114 0 194.5 -80t80.5 -194v-351q0 -114 -80.5 -194t-194.5 -80h-381q-114 0 -194 80t-80 194v351q0 114 80 194t194 80h381zM3308 260v381q0 24 -18.5 41.5t-43.5 17.5h-289q-26 0 -43.5 -17t-17.5 -42
v-381q0 -26 17.5 -43.5t43.5 -17.5h289q25 0 43.5 17.5t18.5 43.5z" />
    <glyph glyph-name="guilsinglleft" unicode="&#x2039;" horiz-adv-x="702" 
d="M635 1092l-305 -398l305 -395h-260l-305 395l305 398h260z" />
    <glyph glyph-name="guilsinglright" unicode="&#x203a;" horiz-adv-x="702" 
d="M328 1092l305 -398l-305 -395h-260l305 395l-305 398h260z" />
    <glyph glyph-name="fraction" unicode="&#x2044;" horiz-adv-x="1218" 
d="M1008 1571h258l-1051 -1708h-260z" />
    <glyph glyph-name="euro" unicode="&#x20ac;" horiz-adv-x="1466" 
d="M604 1190q-26 0 -43.5 -18t-17.5 -44v-182h579v-184h-579v-90h579v-185h-579v-182q0 -25 17.5 -43t43.5 -18h762v-244h-809q-114 0 -194 80t-80 194v213h-183v185h183v90h-183v184h183v213q0 114 80 194.5t194 80.5h809v-244h-762z" />
    <glyph glyph-name="trademark" unicode="&#x2122;" horiz-adv-x="2351" 
d="M57 1249v185h949v-185h-367v-731h-215v731h-367zM2236 1434v-916h-215v625l-266 -361h-164l-264 361v-625h-215v916h246l315 -428l318 428h245z" />
    <glyph glyph-name="minus" unicode="&#x2212;" horiz-adv-x="1007" 
d="M952 616h-899v215h899v-215z" />
    <glyph glyph-name="zero.alt1" unicode="&#xf000;" horiz-adv-x="1509" 
d="M1014 1434l366 -367v-793q0 -114 -80 -194t-194 -80h-610l-367 367v792q0 114 80 194.5t194 80.5h611zM449 1190q-25 0 -42.5 -18.5t-17.5 -43.5v-604l606 606l-57 60h-489zM1059 244q26 0 43.5 17.5t17.5 43.5v604l-608 -606l59 -59h488z" />
    <glyph glyph-name="A.alt1" unicode="&#xf001;" horiz-adv-x="1732" 
d="M965 1434h624v-1434h-258v350h-786l-236 -350h-305zM1331 594v596h-225l-397 -596h622z" />
    <glyph glyph-name="C.alt1" unicode="&#xf002;" horiz-adv-x="1337" 
d="M434 1190q-24 0 -41.5 -18.5t-17.5 -43.5v-671l213 -213h686v-244h-793l-366 367v792q0 114 80 194.5t194 80.5h885v-244h-840z" />
    <glyph glyph-name="E.alt1" unicode="&#xf003;" horiz-adv-x="1359" 
d="M434 1190q-24 0 -41.5 -18.5t-17.5 -43.5v-288h776v-246h-776v-137l213 -213h686v-244h-793l-366 367v792q0 114 80 194.5t194 80.5h885v-244h-840z" />
    <glyph glyph-name="G.alt1" unicode="&#xf004;" horiz-adv-x="1630" 
d="M770 840h748v-566q0 -114 -80.5 -194t-194.5 -80h-762l-366 367v792q0 114 80 194.5t194 80.5h1067v-244h-1022q-24 0 -41.5 -18.5t-17.5 -43.5v-671l213 -213h610q25 0 42 17.5t17 43.5v289h-487v246z" />
    <glyph glyph-name="O.alt1" unicode="&#xf005;" horiz-adv-x="1634" 
d="M1151 1434l367 -367v-793q0 -114 -80.5 -194t-194.5 -80h-762l-366 367v792q0 114 80 194.5t194 80.5h762zM1257 305v672l-213 213h-610q-24 0 -41.5 -18.5t-17.5 -43.5v-671l213 -213h610q25 0 42 17.5t17 43.5z" />
    <glyph glyph-name="P.alt1" unicode="&#xf006;" horiz-adv-x="1546" 
d="M1270 1434q89 0 151 -62.5t62 -150.5v-344l-365 -367h-717v-510h-260v1434h1129zM1225 969v159q0 25 -18.5 43.5t-43.5 18.5h-762v-434h609z" />
    <glyph glyph-name="Q.alt1" unicode="&#xf007;" horiz-adv-x="1634" 
d="M1518 274q0 -107 -73 -185.5t-179 -86.5l252 -276h-306l-249 274h-482l-366 367v792q0 114 80 194.5t194 80.5h762l367 -367v-793zM1260 305l-3 672l-213 213h-610q-24 0 -41.5 -18.5t-17.5 -43.5v-671l213 -213h610q25 0 43.5 17.5t18.5 43.5z" />
    <glyph glyph-name="R.alt1" unicode="&#xf008;" horiz-adv-x="1605" 
d="M1225 0l-404 510h-420v-510h-260v1434h1145q88 0 150.5 -62.5t62.5 -150.5v-344l-360 -361l405 -516h-319zM401 1190v-434h625l213 213v159q0 25 -17.5 43.5t-43.5 18.5h-777z" />
    <glyph glyph-name="U.alt1" unicode="&#xf009;" horiz-adv-x="1660" 
d="M1264 1434h260v-1160q0 -114 -80.5 -194t-194.5 -80h-762l-366 367v1067h260v-977l213 -213h610q25 0 42.5 17.5t17.5 43.5v1129z" />
    <glyph glyph-name="K.alt1" unicode="&#xf00a;" horiz-adv-x="1572" 
d="M1194 0l-410 594h-383v-594h-260v1434h260v-594h594l213 213v381h260v-473l-364 -365l409 -596h-319z" />
    <glyph glyph-name="A.alt2" unicode="&#xf00b;" horiz-adv-x="1732" 
d="M1423 0l-235 350h-787v-350h-260v1434h625l960 -1434h-303zM401 594h623l-399 596h-224v-596z" />
    <glyph glyph-name="nonmarkingreturn.1" horiz-adv-x="0" 
 />
    </font>
</defs>
</svg>
