<svg width="80" height="82" viewBox="0 0 80 82" fill="none" xmlns="http://www.w3.org/2000/svg">
<rect width="80" height="82" rx="10" fill="black" fill-opacity="0.01"/>
<path d="M33.2692 24.5667C32.7382 24.5667 32.3077 24.9995 32.3077 25.5333V30.3667H29.4231C28.8921 30.3667 28.4615 30.7995 28.4615 31.3333V56.4667C28.4615 57.0005 28.8921 57.4333 29.4231 57.4333H32.3077V61.3C32.3077 61.8338 32.7382 62.2667 33.2692 62.2667C33.8002 62.2667 34.2308 61.8338 34.2308 61.3V57.4333H37.1154C37.6464 57.4333 38.0769 57.0005 38.0769 56.4667V31.3333C38.0769 30.7995 37.6464 30.3667 37.1154 30.3667H34.2308V25.5333C34.2308 24.9995 33.8002 24.5667 33.2692 24.5667ZM36.1538 32.3V55.5H30.3846V32.3H36.1538Z" fill="white"/>
<path d="M46.7308 20.7C46.1998 20.7 45.7692 21.1328 45.7692 21.6667V26.5H42.8846C42.3536 26.5 41.9231 26.9328 41.9231 27.4667V52.6C41.9231 53.1338 42.3536 53.5667 42.8846 53.5667H45.7692V57.4333C45.7692 57.9672 46.1998 58.4 46.7308 58.4C47.2618 58.4 47.6923 57.9672 47.6923 57.4333V53.5667H50.5769C51.1079 53.5667 51.5385 53.1338 51.5385 52.6V27.4667C51.5385 26.9328 51.1079 26.5 50.5769 26.5H47.6923V21.6667C47.6923 21.1328 47.2618 20.7 46.7308 20.7ZM49.6154 28.4333V51.6333H43.8462V28.4333H49.6154Z" fill="white"/>
<path d="M60.1923 32.3C59.6613 32.3 59.2308 32.7328 59.2308 33.2667V38.1H56.3462C55.8151 38.1 55.3846 38.5328 55.3846 39.0667V64.2C55.3846 64.7338 55.8151 65.1667 56.3462 65.1667H59.2308V69.0333C59.2308 69.5672 59.6613 70 60.1923 70C60.7233 70 61.1538 69.5672 61.1538 69.0333V65.1667H64.0385C64.5695 65.1667 65 64.7338 65 64.2V39.0667C65 38.5328 64.5695 38.1 64.0385 38.1H61.1538V33.2667C61.1538 32.7328 60.7233 32.3 60.1923 32.3ZM63.0769 40.0333V63.2333H57.3077V40.0333H63.0769Z" fill="white"/>
<path d="M19.8077 12C19.2767 12 18.8462 12.4328 18.8462 12.9667V17.8H15.9615C15.4305 17.8 15 18.2328 15 18.7667V43.9C15 44.4338 15.4305 44.8667 15.9615 44.8667H18.8462V48.7333C18.8462 49.2672 19.2767 49.7 19.8077 49.7C20.3387 49.7 20.7692 49.2672 20.7692 48.7333V44.8667H23.6538C24.1849 44.8667 24.6154 44.4338 24.6154 43.9V18.7667C24.6154 18.2328 24.1849 17.8 23.6538 17.8H20.7692V12.9667C20.7692 12.4328 20.3387 12 19.8077 12ZM22.6923 19.7333V42.9333H16.9231V19.7333H22.6923Z" fill="white"/>
</svg>
