<svg width="80" height="74" viewBox="0 0 80 74" fill="none" xmlns="http://www.w3.org/2000/svg">
<rect width="80" height="74" rx="10" fill="black" fill-opacity="0.01"/>
<path d="M63.7986 41.499L61.5034 40.5824C61.1895 39.463 60.7418 38.3855 60.17 37.3733L61.1392 35.1026C61.2752 34.7972 61.3223 34.4597 61.2751 34.1288C61.2279 33.7979 61.0884 33.487 60.8725 33.2318C60.2324 32.4698 59.5275 31.7647 58.7657 31.1244C58.5109 30.9083 58.2004 30.7685 57.8697 30.721C57.539 30.6736 57.2017 30.7204 56.8964 30.856L54.6246 31.826C53.6122 31.255 52.5349 30.8074 51.416 30.4927L50.4993 28.1995C50.3883 27.9357 50.2171 27.7017 49.9992 27.5162V18.6664C49.9992 14.3333 40.9827 12 32.4979 12C24.0132 12 15 14.3333 15 18.6664V48.6654C15 52.9986 24.0165 55.3319 32.5013 55.3319C32.9596 55.3319 33.4022 55.3161 33.8489 55.3044C33.9166 55.4728 34.0105 55.6295 34.1272 55.7685C34.7678 56.5301 35.4727 57.2352 36.234 57.876C36.489 58.0918 36.7995 58.2314 37.1301 58.2789C37.4607 58.3263 37.798 58.2797 38.1034 58.1443L40.3752 57.1743C41.3876 57.7453 42.4648 58.193 43.5838 58.5076L44.5005 60.8009C44.6236 61.1081 44.8285 61.3759 45.0929 61.5751C45.3574 61.7742 45.6712 61.8973 46.0006 61.9308C46.5198 61.9775 47.0398 62 47.5457 62C48.0516 62 48.5458 61.9775 49.0058 61.9308C49.3353 61.8969 49.6492 61.7736 49.9136 61.5741C50.1781 61.3747 50.3829 61.1067 50.5059 60.7992L51.4227 58.5076C52.5416 58.193 53.6188 57.7453 54.6312 57.1743L56.9014 58.1435C57.207 58.2788 57.5446 58.3254 57.8754 58.278C58.2063 58.2305 58.5171 58.0909 58.7724 57.8751C59.5339 57.2348 60.2388 56.53 60.8792 55.7685C61.0949 55.5138 61.2344 55.2033 61.2817 54.8729C61.329 54.5424 61.2822 54.2053 61.1467 53.9003L60.1766 51.627C60.7464 50.6137 61.1918 49.5354 61.5034 48.4155L63.7994 47.4988C64.1048 47.3758 64.371 47.172 64.5693 46.9092C64.7677 46.6464 64.8907 46.3346 64.9253 46.0072C65.0249 45.0053 65.0249 43.9959 64.9253 42.994C64.891 42.666 64.768 42.3535 64.5695 42.0901C64.3709 41.8267 64.1044 41.6224 63.7986 41.499ZM32.5013 13.6666C41.8353 13.6666 48.3358 16.3015 48.3358 18.6664C48.3358 21.0314 41.8353 23.6663 32.5013 23.6663C23.1673 23.6663 16.6668 21.0314 16.6668 18.6664C16.6668 16.3015 23.1673 13.6666 32.5013 13.6666ZM16.6668 21.6338C19.6595 24.0529 26.2242 25.3329 32.5013 25.3329C38.7784 25.3329 45.343 24.0529 48.3358 21.6338V27.0387C47.5583 26.9911 46.7783 27.0011 46.0023 27.0687C45.6728 27.1026 45.3589 27.2259 45.0944 27.4254C44.83 27.6248 44.6252 27.8928 44.5022 28.2003L43.5854 30.4919C42.4665 30.8065 41.3893 31.2542 40.3769 31.8252L38.1067 30.856C37.8011 30.7197 37.4633 30.6725 37.132 30.7199C36.8008 30.7674 36.4898 30.9076 36.2349 31.1244C35.474 31.7651 34.7694 32.4699 34.1289 33.231C34.0252 33.3528 33.9391 33.4886 33.873 33.6343C33.418 33.6476 32.9638 33.6659 32.5013 33.6659C23.1673 33.6659 16.6668 31.031 16.6668 28.6661V21.6338ZM16.6668 31.6335C19.6595 34.0526 26.2242 35.3326 32.5013 35.3326C32.988 35.3326 33.4663 35.3134 33.9447 35.2976L34.8298 37.3708C34.2595 38.3841 33.8134 39.4624 33.5014 40.5824L31.2053 41.499C30.8999 41.622 30.6338 41.8258 30.4354 42.0886C30.2371 42.3514 30.114 42.6632 30.0794 42.9906C30.0594 43.1906 30.0611 43.3923 30.0494 43.5931C22.0122 43.1656 16.6668 40.7565 16.6668 38.6658V31.6335ZM33.9722 53.6328C33.4863 53.6494 33.0013 53.6653 32.5013 53.6653C23.1673 53.6653 16.6668 51.0304 16.6668 48.6654V41.5773C18.8436 43.4015 23.2164 44.9239 30.0386 45.2572C30.0511 45.5072 30.0511 45.7572 30.0761 46.0072C30.1096 46.3365 30.2326 46.6504 30.4318 46.9149C30.631 47.1793 30.8988 47.3841 31.2062 47.5072L33.498 48.4238C33.8119 49.5432 34.2596 50.6206 34.8314 51.6328L33.9722 53.6328ZM63.2694 45.8497C63.2636 45.8725 63.2524 45.8936 63.237 45.9112C63.2215 45.9289 63.202 45.9426 63.1802 45.9514L60.4983 47.0222C60.3754 47.0713 60.2659 47.149 60.1789 47.2488C60.0919 47.3486 60.03 47.4678 59.9983 47.5963C59.689 48.8429 59.194 50.0359 58.5298 51.1354C58.4617 51.2484 58.4214 51.3761 58.4123 51.5078C58.4032 51.6395 58.4255 51.7715 58.4773 51.8928L59.6124 54.5536C59.6242 54.5753 59.6294 54.6 59.6277 54.6246C59.6259 54.6493 59.6171 54.6729 59.6024 54.6927C59.0198 55.3855 58.3784 56.0267 57.6856 56.6093C57.6656 56.6209 57.6429 56.627 57.6198 56.627C57.5967 56.627 57.574 56.6209 57.5539 56.6093L54.8971 55.4752C54.7758 55.4235 54.6439 55.4013 54.5124 55.4104C54.3808 55.4195 54.2533 55.4597 54.1404 55.5277C53.0415 56.1926 51.8489 56.6884 50.6026 56.9985C50.474 57.0302 50.3549 57.0921 50.2551 57.1791C50.1552 57.266 50.0775 57.3755 50.0284 57.4985L48.9583 60.1776C48.9497 60.2015 48.9349 60.2228 48.9155 60.2392C48.896 60.2556 48.8725 60.2665 48.8475 60.2709C47.9496 60.3534 47.046 60.3534 46.1481 60.2709C46.1251 60.2653 46.1039 60.254 46.0863 60.2382C46.0687 60.2223 46.0553 60.2024 46.0473 60.1801L44.9764 57.4985C44.9272 57.3755 44.8495 57.266 44.7497 57.1791C44.6498 57.0921 44.5307 57.0302 44.4021 56.9985C43.1554 56.6894 41.9622 56.1944 40.8627 55.5302C40.7497 55.4622 40.6222 55.422 40.4907 55.4129C40.3591 55.4038 40.2273 55.426 40.106 55.4777L37.4475 56.6127C37.4254 56.6247 37.4002 56.63 37.3752 56.6277C37.3501 56.6255 37.3263 56.6159 37.3066 56.6002C36.6152 56.0175 35.9753 55.3762 35.394 54.6836C35.3825 54.6637 35.3765 54.6411 35.3765 54.6182C35.3765 54.5952 35.3825 54.5726 35.394 54.5527L36.5282 51.8945C36.5801 51.7731 36.6024 51.6411 36.5933 51.5094C36.5842 51.3777 36.5439 51.2501 36.4757 51.137C35.8116 50.0376 35.3166 48.8446 35.0073 47.598C34.9756 47.4694 34.9136 47.3503 34.8267 47.2505C34.7397 47.1506 34.6302 47.0729 34.5073 47.0238L31.8296 45.9547C31.8069 45.9462 31.7866 45.9324 31.7703 45.9144C31.7541 45.8964 31.7424 45.8748 31.7362 45.8514V45.8422C31.6466 44.9447 31.6466 44.0406 31.7362 43.1431C31.742 43.1204 31.7531 43.0993 31.7686 43.0816C31.7841 43.0639 31.8036 43.0502 31.8254 43.0415L34.5073 41.9707C34.6302 41.9216 34.7397 41.8439 34.8267 41.744C34.9136 41.6442 34.9756 41.5251 35.0073 41.3965C35.3166 40.1499 35.8116 38.9569 36.4757 37.8575C36.5439 37.7444 36.5842 37.6168 36.5933 37.4851C36.6024 37.3534 36.5801 37.2214 36.5282 37.1L35.3923 34.4409C35.3806 34.4192 35.3753 34.3945 35.3771 34.3699C35.3788 34.3452 35.3876 34.3216 35.4023 34.3018C35.9854 33.6094 36.6267 32.9682 37.3191 32.3852C37.3392 32.3738 37.3619 32.3678 37.385 32.3678C37.408 32.3678 37.4307 32.3738 37.4508 32.3852L40.1077 33.5193C40.2288 33.5716 40.3608 33.5941 40.4924 33.5849C40.6241 33.5758 40.7516 33.5353 40.8644 33.4668C41.9634 32.8031 43.156 32.3084 44.4021 31.9993C44.5307 31.9676 44.6498 31.9057 44.7497 31.8187C44.8495 31.7318 44.9272 31.6223 44.9764 31.4994L46.0464 28.8203C46.055 28.7963 46.0698 28.7751 46.0893 28.7587C46.1087 28.7423 46.1322 28.7313 46.1573 28.7269C47.0551 28.6436 47.9588 28.6436 48.8566 28.7269C48.8796 28.7326 48.9009 28.7438 48.9185 28.7597C48.9361 28.7755 48.9495 28.7955 48.9575 28.8178L50.0284 31.4994C50.0775 31.6223 50.1552 31.7318 50.2551 31.8187C50.3549 31.9057 50.474 31.9676 50.6026 31.9993C51.8494 32.3085 53.0425 32.8034 54.142 33.4676C54.2548 33.5361 54.3824 33.5766 54.514 33.5858C54.6457 33.5949 54.7776 33.5724 54.8987 33.5201L57.5573 32.3852C57.5794 32.3732 57.6045 32.368 57.6296 32.3703C57.6546 32.3725 57.6784 32.382 57.6981 32.3977C58.3912 32.98 59.0325 33.6212 59.6149 34.3143C59.6264 34.3341 59.6325 34.3567 59.6325 34.3797C59.6325 34.4026 59.6264 34.4252 59.6149 34.4451L58.4807 37.1033C58.4288 37.2247 58.4065 37.3567 58.4156 37.4884C58.4248 37.6201 58.465 37.7477 58.5332 37.8608C59.1973 38.9602 59.6923 40.1532 60.0016 41.3999C60.0334 41.5284 60.0953 41.6475 60.1822 41.7474C60.2692 41.8472 60.3787 41.9249 60.5017 41.974L63.1793 43.0431C63.2033 43.0523 63.2246 43.0675 63.241 43.0872C63.2575 43.1068 63.2687 43.1304 63.2735 43.1556C63.3616 44.0527 63.3602 44.9563 63.2694 45.853V45.8497Z" fill="white"/>
<path d="M47.5024 33.6659C45.3596 33.6659 43.2649 34.3013 41.4833 35.4916C39.7016 36.682 38.313 38.3739 37.4929 40.3533C36.6729 42.3328 36.4584 44.5109 36.8764 46.6123C37.2945 48.7137 38.3263 50.644 39.8415 52.159C41.3567 53.674 43.2871 54.7057 45.3887 55.1237C47.4904 55.5417 49.6687 55.3272 51.6484 54.5073C53.6281 53.6874 55.3201 52.2989 56.5106 50.5174C57.7011 48.7359 58.3365 46.6415 58.3365 44.4989C58.3332 41.6269 57.1907 38.8734 55.1596 36.8425C53.1285 34.8116 50.3747 33.6693 47.5024 33.6659ZM47.5024 53.6653C45.6892 53.6653 43.9168 53.1277 42.4093 52.1205C40.9017 51.1133 39.7267 49.6817 39.0329 48.0067C38.339 46.3318 38.1575 44.4888 38.5112 42.7107C38.8649 40.9326 39.738 39.2993 41.0201 38.0173C42.3022 36.7354 43.9356 35.8624 45.7139 35.5087C47.4922 35.155 49.3354 35.3365 51.0106 36.0303C52.6857 36.7241 54.1174 37.899 55.1247 39.4064C56.1321 40.9138 56.6697 42.686 56.6697 44.4989C56.6668 46.9291 55.7001 49.2589 53.9815 50.9773C52.2629 52.6958 49.9328 53.6624 47.5024 53.6653Z" fill="white"/>
<path d="M47.5024 37.8325C46.1837 37.8325 44.8947 38.2235 43.7983 38.956C42.7019 39.6885 41.8473 40.7296 41.3427 41.9478C40.8381 43.1659 40.7061 44.5063 40.9633 45.7995C41.2206 47.0926 41.8556 48.2805 42.788 49.2128C43.7204 50.1451 44.9084 50.78 46.2017 51.0373C47.495 51.2945 48.8355 51.1625 50.0538 50.6579C51.272 50.1533 52.3133 49.2989 53.0459 48.2026C53.7785 47.1063 54.1695 45.8174 54.1695 44.4989C54.1675 42.7315 53.4645 41.037 52.2146 39.7872C50.9647 38.5374 49.27 37.8345 47.5024 37.8325ZM47.5024 49.4987C46.5134 49.4987 45.5466 49.2055 44.7243 48.6561C43.902 48.1067 43.2611 47.3259 42.8826 46.4123C42.5042 45.4987 42.4051 44.4934 42.5981 43.5235C42.791 42.5536 43.2673 41.6627 43.9666 40.9635C44.6659 40.2643 45.5569 39.7881 46.5268 39.5952C47.4968 39.4022 48.5022 39.5012 49.4159 39.8797C50.3296 40.2581 51.1106 40.8989 51.66 41.7212C52.2095 42.5434 52.5027 43.51 52.5027 44.4989C52.5014 45.8245 51.9742 47.0955 51.0367 48.0329C50.0992 48.9702 48.8281 49.4974 47.5024 49.4987Z" fill="white"/>
<path d="M18.8136 27.9211C19.0928 28.052 19.3878 28.1778 19.6945 28.2995C19.899 28.3754 20.125 28.3681 20.3242 28.2793C20.5234 28.1904 20.6798 28.027 20.7599 27.8242C20.8399 27.6213 20.8373 27.3952 20.7524 27.1942C20.6676 26.9933 20.5074 26.8337 20.3062 26.7495C20.0318 26.6412 19.7698 26.5284 19.5203 26.4112C19.3201 26.3175 19.0908 26.3072 18.8829 26.3825C18.6751 26.4578 18.5056 26.6126 18.4119 26.8128C18.3182 27.0131 18.3079 27.2423 18.3832 27.4502C18.4585 27.658 18.6134 27.8274 18.8136 27.9211Z" fill="white"/>
<path d="M23.1448 29.3494C23.4253 29.4155 23.7115 29.4777 24.0032 29.5361C24.058 29.5472 24.1139 29.5525 24.1698 29.5519C24.3765 29.5521 24.5759 29.4755 24.7293 29.337C24.8826 29.1985 24.9791 29.008 24.9998 28.8024C25.0206 28.5967 24.9642 28.3908 24.8417 28.2244C24.7191 28.058 24.5391 27.9431 24.3365 27.902C24.0615 27.847 23.7923 27.7878 23.5281 27.727C23.4204 27.6987 23.3081 27.6923 23.1978 27.7081C23.0876 27.724 22.9816 27.7618 22.8862 27.8193C22.7908 27.8768 22.7079 27.9528 22.6424 28.0429C22.5769 28.133 22.5301 28.2353 22.5048 28.3437C22.4795 28.4522 22.4762 28.5646 22.4951 28.6744C22.514 28.7841 22.5548 28.889 22.6149 28.9828C22.675 29.0765 22.7533 29.1573 22.8452 29.2202C22.9371 29.2832 23.0406 29.3271 23.1498 29.3494H23.1448Z" fill="white"/>
</svg>
