<svg width="30" height="30" viewBox="0 0 30 30" fill="none" xmlns="http://www.w3.org/2000/svg">
<path d="M0 0H30V30H0V0Z" fill="white"/>
<path d="M21.7161 17.5022C20.7365 17.5022 19.7747 17.349 18.8633 17.0478C18.4166 16.8954 17.8676 17.0352 17.595 17.3151L15.796 18.6732C13.7096 17.5595 12.4244 16.2748 11.3259 14.204L12.6441 12.4519C12.9865 12.1099 13.1094 11.6103 12.9622 11.1415C12.6597 10.2253 12.506 9.26392 12.506 8.28392C12.5061 7.57596 11.9301 7 11.2222 7H8.28387C7.57596 7 7 7.57596 7 8.28388C7 16.3985 13.6016 23 21.7161 23C22.424 23 23 22.424 23 21.7161V18.786C23 18.0781 22.424 17.5022 21.7161 17.5022Z" fill="#6F93E6"/>
</svg>
