<svg width="80" height="74" viewBox="0 0 80 74" fill="none" xmlns="http://www.w3.org/2000/svg">
<rect width="80" height="74" fill="black" fill-opacity="0.01"/>
<path d="M19.6509 48.2433C19.5336 48.0407 19.3417 47.8921 19.1164 47.8296C18.8911 47.767 18.6503 47.7954 18.4457 47.9086C18.241 48.0219 18.0888 48.211 18.0216 48.4354C17.9545 48.6598 17.9777 48.9016 18.0864 49.109C27.3878 66.2991 52.6155 66.2951 61.9136 49.1086C62.0277 48.9008 62.0547 48.6561 61.9889 48.4282C61.923 48.2004 61.7696 48.0081 61.5624 47.8935C61.3551 47.7789 61.111 47.7513 60.8835 47.8169C60.656 47.8825 60.4638 48.0359 60.3491 48.2433C58.3427 51.8916 55.3963 54.9336 51.8171 57.0522C48.2379 59.1708 44.157 60.2884 40 60.2884C35.8429 60.2884 31.762 59.1708 28.1828 57.0522C24.6036 54.9336 21.6572 51.8916 19.6509 48.2433Z" fill="white"/>
<path d="M57.6198 21.8602C57.7753 22.0351 57.993 22.1421 58.2262 22.158C58.4595 22.1739 58.6897 22.0976 58.8675 21.9455C59.0452 21.7933 59.1564 21.5774 59.1771 21.344C59.1978 21.1107 59.1265 20.8785 58.9783 20.6973C49.4186 9.10043 30.5804 9.10128 21.0217 20.6976C20.8731 20.8788 20.8015 21.1111 20.8221 21.3447C20.8427 21.5783 20.9539 21.7944 21.1319 21.9467C21.3098 22.099 21.5403 22.1752 21.7737 22.159C22.0072 22.1428 22.225 22.0355 22.3803 21.8601C31.2561 11.0945 48.7451 11.0956 57.6198 21.8602Z" fill="white"/>
<path d="M28.3163 21.1778C28.1312 21.3212 28.0096 21.5316 27.9776 21.764C27.9457 21.9963 28.006 22.2318 28.1455 22.4201C28.285 22.6083 28.4927 22.7342 28.7239 22.7707C28.955 22.8072 29.1913 22.7513 29.3818 22.6152C32.4575 20.3427 36.1786 19.1167 40.0001 19.1167C43.8215 19.1167 47.5425 20.3427 50.6183 22.6153C50.8088 22.7511 51.0449 22.8066 51.2758 22.77C51.5068 22.7333 51.7142 22.6075 51.8536 22.4194C51.993 22.2313 52.0533 21.9959 52.0215 21.7638C51.9897 21.5317 51.8684 21.3213 51.6836 21.1777C48.2995 18.6767 44.205 17.3273 40 17.3273C35.795 17.3273 31.7005 18.6767 28.3163 21.1778Z" fill="white"/>
<path d="M40 56.7071C42.9645 56.7132 45.8915 56.0433 48.5594 54.7483C51.2273 53.4533 53.5662 51.567 55.3991 49.2322C55.5407 49.0455 55.6036 48.8107 55.5743 48.578C55.545 48.3454 55.4258 48.1335 55.2424 47.9879C55.0589 47.8423 54.8258 47.7746 54.5931 47.7994C54.3604 47.8241 54.1466 47.9392 53.9977 48.1201C47.1442 57.1246 32.855 57.1236 26.0023 48.1198C25.8533 47.9391 25.6395 47.8241 25.4069 47.7995C25.1742 47.7749 24.9412 47.8427 24.7578 47.9882C24.5745 48.1338 24.4553 48.3456 24.426 48.5782C24.3967 48.8108 24.4595 49.0456 24.601 49.2323C26.4338 51.567 28.7727 53.4533 31.4407 54.7483C34.1086 56.0433 37.0356 56.7132 40 56.7071Z" fill="white"/>
<path d="M15.4534 39.3092C15.1392 39.9075 14.9835 40.5767 15.0014 41.2525C15.0192 41.9284 15.21 42.5884 15.5553 43.1692C15.9007 43.75 16.3891 44.2323 16.9737 44.5697C17.5584 44.9072 18.2198 45.0886 18.8944 45.0965L28.837 45.0966C28.8336 45.6875 28.9464 46.2733 29.1691 46.8206C29.3917 47.3678 29.7198 47.8657 30.1345 48.2858C30.5493 48.7059 31.0426 49.04 31.5863 49.269C32.13 49.498 32.7133 49.6174 33.3031 49.6204L46.6969 49.6204C47.2874 49.6201 47.872 49.5025 48.4169 49.2744C48.9617 49.0463 49.4561 48.7123 49.8713 48.2916C50.2866 47.871 50.6146 47.372 50.8363 46.8236C51.058 46.2752 51.169 45.6882 51.163 45.0966H61.1057C61.7803 45.0886 62.4417 44.9072 63.0263 44.5697C63.611 44.2322 64.0994 43.75 64.4447 43.1692C64.7901 42.5883 64.9808 41.9283 64.9986 41.2525C65.0165 40.5766 64.8608 39.9075 64.5466 39.3092C63.325 37.0414 61.3024 35.3126 58.875 34.4614C59.5535 33.9378 60.1031 33.2653 60.4815 32.4955C60.8599 31.7256 61.057 30.8791 61.0577 30.021C60.7914 22.5812 50.1025 22.5809 49.8374 30.0211C49.838 30.8793 50.0352 31.726 50.4138 32.4959C50.7923 33.2659 51.3421 33.9385 52.0209 34.462C49.8308 35.2349 47.9658 36.7269 46.7287 38.6958C45.8016 38.072 44.7925 37.5804 43.7303 37.2353C44.5783 36.6374 45.2705 35.8441 45.7486 34.9221C46.2267 34.0002 46.4767 32.9766 46.4775 31.9376C46.1749 23.3499 33.8261 23.3465 33.5225 31.9377C33.5233 32.9767 33.7733 34.0002 34.2514 34.9222C34.7295 35.8441 35.4217 36.6374 36.2697 37.2353C35.207 37.5806 34.1975 38.0724 33.2701 38.6966C32.0308 36.7298 30.1668 35.2383 27.9784 34.4626C28.6573 33.939 29.2073 33.2663 29.586 32.4963C29.9647 31.7262 30.162 30.8794 30.1627 30.0209C29.9054 22.5883 19.2047 22.577 18.9423 30.021C18.943 30.8791 19.1401 31.7257 19.5185 32.4955C19.897 33.2653 20.4466 33.9378 21.1251 34.4614C18.6976 35.3126 16.6749 37.0415 15.4534 39.3092ZM51.6244 30.021C51.634 29.0113 52.041 28.0462 52.757 27.3356C53.4729 26.6251 54.4399 26.2264 55.4475 26.2264C56.4552 26.2265 57.4222 26.6251 58.1381 27.3357C58.854 28.0463 59.261 29.0114 59.2707 30.0211C59.261 31.0308 58.854 31.9958 58.138 32.7064C57.4221 33.417 56.4551 33.8156 55.4475 33.8156C54.4398 33.8156 53.4728 33.4169 52.7569 32.7063C52.041 31.9957 51.634 31.0307 51.6244 30.021ZM55.4412 35.6423C56.9868 35.6411 58.5038 36.0605 59.8303 36.8557C61.1567 37.6509 62.2427 38.792 62.9726 40.1574C63.1437 40.4824 63.2288 40.8461 63.2195 41.2135C63.2102 41.581 63.1069 41.9399 62.9196 42.2559C62.7322 42.5718 62.467 42.8343 62.1494 43.0182C61.8318 43.202 61.4724 43.3011 61.1056 43.3058H50.7658C50.1229 41.9805 49.2315 40.7914 48.1403 39.8036C48.8968 38.5388 49.9664 37.4913 51.2454 36.7623C52.5245 36.0332 53.9697 35.6475 55.4412 35.6423ZM35.3095 31.9376C35.5067 25.7262 44.4943 25.7276 44.6905 31.9377C44.4935 38.1496 35.5056 38.1481 35.3095 31.9376ZM49.0551 43.855C49.2715 44.2654 49.3791 44.7247 49.3675 45.1888C49.3558 45.6529 49.2254 46.1062 48.9887 46.5052C48.7519 46.9042 48.4168 47.2356 48.0155 47.4675C47.6142 47.6995 47.1601 47.8242 46.6969 47.8297L33.3031 47.8298C32.838 47.8288 32.3812 47.707 31.9773 47.4761C31.5733 47.2453 31.2361 46.9134 30.9985 46.5129C30.7608 46.1124 30.631 45.6569 30.6216 45.191C30.6122 44.7252 30.7236 44.2648 30.9449 43.855C34.6896 36.672 45.3113 36.6726 49.0551 43.855ZM20.7294 30.021C20.7389 29.0112 21.1459 28.046 21.8618 27.3353C22.5778 26.6246 23.5448 26.2259 24.5526 26.226C25.5603 26.226 26.5273 26.6247 27.2433 27.3354C27.9592 28.0461 28.3662 29.0113 28.3757 30.021C28.3662 31.0308 27.9592 31.996 27.2432 32.7067C26.5273 33.4174 25.5602 33.8161 24.5525 33.816C23.5447 33.816 22.5777 33.4173 21.8618 32.7066C21.1458 31.9959 20.7389 31.0307 20.7294 30.021ZM24.5442 35.6422C26.0179 35.6463 27.4655 36.0316 28.747 36.7607C30.0285 37.4899 31.1004 38.5382 31.859 39.8043C30.7681 40.792 29.877 41.9808 29.2342 43.3059H18.8944C18.5276 43.3011 18.1682 43.202 17.8506 43.0181C17.533 42.8343 17.2678 42.5718 17.0804 42.2558C16.8931 41.9398 16.7898 41.5809 16.7806 41.2134C16.7713 40.846 16.8564 40.4823 17.0275 40.1573C17.7562 38.7942 18.8399 37.6545 20.1635 36.8594C21.4871 36.0644 23.001 35.6437 24.5442 35.6422Z" fill="white"/>
</svg>
