<svg width="30" height="30" viewBox="0 0 30 30" fill="none" xmlns="http://www.w3.org/2000/svg">
<rect width="30" height="30" fill="white"/>
<path d="M17.6633 15.7084L16.1558 17.1426C15.5444 17.7242 14.4688 17.7368 13.8442 17.1426L12.3366 15.7084L6.92201 20.8589C7.12356 20.9473 7.34578 21 7.58203 21H22.418C22.6542 21 22.8764 20.9473 23.0779 20.8589L17.6633 15.7084Z" fill="#6F93E6"/>
<path d="M22.418 9H7.58203C7.34578 9 7.12356 9.05273 6.92208 9.1411L12.708 14.6452C12.7084 14.6456 12.7088 14.6456 12.7092 14.646C12.7096 14.6464 12.7097 14.6469 12.7097 14.6469L14.591 16.4365C14.7908 16.626 15.2092 16.626 15.4091 16.4365L17.29 14.6472C17.29 14.6472 17.2905 14.6464 17.2909 14.646C17.2909 14.646 17.2917 14.6456 17.2921 14.6452L23.0779 9.14107C22.8764 9.05267 22.6542 9 22.418 9Z" fill="#6F93E6"/>
<path d="M6.16826 9.8404C6.06398 10.0403 6 10.2623 6 10.5V19.5C6 19.7377 6.06391 19.9597 6.16822 20.1596L11.5922 15.0002L6.16826 9.8404Z" fill="#6F93E6"/>
<path d="M23.8317 9.84033L18.4078 15.0002L23.8317 20.1597C23.936 19.9597 24 19.7378 24 19.5V10.5C24 10.2622 23.936 10.0403 23.8317 9.84033Z" fill="#6F93E6"/>
</svg>
