<svg width="30" height="30" viewBox="0 0 30 30" fill="none" xmlns="http://www.w3.org/2000/svg">
<rect width="30" height="30" fill="white"/>
<path d="M15 6C11.1407 6 8 9.0495 8 12.7987C8 18.126 14.342 23.6265 14.6119 23.8575C14.7231 23.9527 14.8616 24 15 24C15.1384 24 15.2769 23.9528 15.3881 23.8583C15.658 23.6265 22 18.126 22 12.7987C22 9.0495 18.8593 6 15 6ZM15 16.5C12.8557 16.5 11.1111 14.8178 11.1111 12.75C11.1111 10.6822 12.8557 9 15 9C17.1443 9 18.8889 10.6822 18.8889 12.75C18.8889 14.8178 17.1443 16.5 15 16.5Z" fill="#6F93E6"/>
</svg>
