<?xml version="1.0" encoding="utf-8"?>
<!-- Generator: Adobe Illustrator 28.2.0, SVG Export Plug-In . SVG Version: 6.00 Build 0)  -->
<svg version="1.1" id="Layer_1" xmlns="http://www.w3.org/2000/svg" xmlns:xlink="http://www.w3.org/1999/xlink" x="0px" y="0px"
	 viewBox="0 0 147.3 154.8" style="enable-background:new 0 0 147.3 154.8;" xml:space="preserve">
<style type="text/css">
	.st0{fill:#19196A;}
	.st1{fill:url(#SVGID_1_);}
	.st2{fill:url(#SVGID_00000088101248779194065350000012250053393024559276_);}
	.st3{fill:url(#SVGID_00000008130356332570823540000010297544478550659243_);}
	.st4{fill:url(#SVGID_00000021820245908507901530000012694611354976119698_);}
	.st5{fill:url(#SVGID_00000075841268396113513450000014570424022882840493_);}
	.st6{fill:url(#SVGID_00000121968014068991759560000018087944551887238323_);}
	.st7{fill:url(#SVGID_00000096042571037644629710000011625769707058071210_);}
	.st8{fill:url(#SVGID_00000019650592216983941630000000866853313031737772_);}
	.st9{fill:url(#SVGID_00000139998200476382700910000010100495061543813525_);}
	.st10{fill:url(#SVGID_00000165204364965600817590000003898027894969468839_);}
	.st11{fill:url(#SVGID_00000182517610700090781490000013779858335457854134_);}
</style>
<g>
	<g>
		<g>
			<path class="st0" d="M73.6,154.8c-1,0-1.9-0.2-2.7-0.5c-3.3-1.5-6.6-2.9-10-4.4c-9.9-4.3-20.2-8.8-30.1-13.7
				C11,126.2,0.4,109.5,0.2,87.6C-0.1,65.2,0,50.5,0,33.4c0-8.1,0.1-16.9,0.1-27.4V0h147.1v2.3c0,10.3,0,19.2,0,27.7
				c0,18.6,0.1,34.6-0.1,57.1c-0.2,22.7-10.7,39.3-31.2,49.3c-10.1,4.9-20.5,9.5-30.6,13.9c-3,1.3-6,2.6-9,4
				C75.6,154.6,74.6,154.8,73.6,154.8z M4.7,4.6V6c0,10.6,0,19.3-0.1,27.5c-0.1,17-0.1,31.7,0.2,54.1c0.2,20.3,9.7,35.2,28.1,44.4
				c9.8,4.9,20,9.3,29.9,13.7c3.3,1.5,6.7,2.9,10,4.4c0.4,0.2,1.3,0.2,1.7,0c3-1.3,6-2.7,9-4c10-4.4,20.4-9,30.4-13.9
				c18.8-9.2,28.4-24.4,28.6-45.2c0.2-22.4,0.2-38.4,0.1-57c0-7.8,0-16.1,0-25.4H4.7z"/>
		</g>
	</g>
	<g>
		<g>
			<linearGradient id="SVGID_1_" gradientUnits="userSpaceOnUse" x1="12.9088" y1="53.1135" x2="142.9443" y2="126.5686">
				<stop  offset="0" style="stop-color:#19196A"/>
				<stop  offset="1" style="stop-color:#6F93E6"/>
			</linearGradient>
			<path class="st1" d="M39.9,68.8H20.2V48.6h0c10.9,0,19.7,8.8,19.7,19.7V68.8z"/>
			
				<linearGradient id="SVGID_00000130626348477683287580000015357108090905808775_" gradientUnits="userSpaceOnUse" x1="5.4442" y1="66.328" x2="135.4797" y2="139.7831">
				<stop  offset="0" style="stop-color:#19196A"/>
				<stop  offset="1" style="stop-color:#6F93E6"/>
			</linearGradient>
			
				<rect x="20.2" y="70.2" style="fill:url(#SVGID_00000130626348477683287580000015357108090905808775_);" width="19.7" height="20.2"/>
			
				<linearGradient id="SVGID_00000026160521158024550640000013356930976118912420_" gradientUnits="userSpaceOnUse" x1="-3.7719" y1="82.643" x2="126.2636" y2="156.0981">
				<stop  offset="0" style="stop-color:#19196A"/>
				<stop  offset="1" style="stop-color:#6F93E6"/>
			</linearGradient>
			
				<rect x="20.2" y="91.7" style="fill:url(#SVGID_00000026160521158024550640000013356930976118912420_);" width="19.7" height="20.2"/>
			
				<linearGradient id="SVGID_00000062167961851924416600000013372042120326513550_" gradientUnits="userSpaceOnUse" x1="19.8284" y1="40.864" x2="149.8639" y2="114.3191">
				<stop  offset="0" style="stop-color:#19196A"/>
				<stop  offset="1" style="stop-color:#6F93E6"/>
			</linearGradient>
			<path style="fill:url(#SVGID_00000062167961851924416600000013372042120326513550_);" d="M61.3,68.8H41.6v-0.5
				c0-10.9,8.8-19.7,19.7-19.7h0V68.8z"/>
			
				<linearGradient id="SVGID_00000035511924639017807460000008552802291215886494_" gradientUnits="userSpaceOnUse" x1="29.9925" y1="22.8707" x2="160.028" y2="96.3259">
				<stop  offset="0" style="stop-color:#19196A"/>
				<stop  offset="1" style="stop-color:#6F93E6"/>
			</linearGradient>
			<path style="fill:url(#SVGID_00000035511924639017807460000008552802291215886494_);" d="M103.3,68.8H83.6v-0.5
				c0-10.9,8.8-19.7,19.7-19.7h0V68.8z"/>
			<g>
				
					<linearGradient id="SVGID_00000145774025576489855180000016413590348060727681_" gradientUnits="userSpaceOnUse" x1="23.1932" y1="34.9074" x2="153.2287" y2="108.3625">
					<stop  offset="0" style="stop-color:#19196A"/>
					<stop  offset="1" style="stop-color:#6F93E6"/>
				</linearGradient>
				<path style="fill:url(#SVGID_00000145774025576489855180000016413590348060727681_);" d="M82.4,68.8H62.8V48.6h0
					c10.9,0,19.7,8.8,19.7,19.7V68.8z"/>
				
					<linearGradient id="SVGID_00000153681372185314846040000009154180309005576331_" gradientUnits="userSpaceOnUse" x1="15.7285" y1="48.1219" x2="145.764" y2="121.577">
					<stop  offset="0" style="stop-color:#19196A"/>
					<stop  offset="1" style="stop-color:#6F93E6"/>
				</linearGradient>
				
					<rect x="62.8" y="70.2" style="fill:url(#SVGID_00000153681372185314846040000009154180309005576331_);" width="19.7" height="20.2"/>
				
					<linearGradient id="SVGID_00000180348575499466243830000008303614429345276578_" gradientUnits="userSpaceOnUse" x1="6.5124" y1="64.4369" x2="136.5479" y2="137.892">
					<stop  offset="0" style="stop-color:#19196A"/>
					<stop  offset="1" style="stop-color:#6F93E6"/>
				</linearGradient>
				
					<rect x="62.8" y="91.7" style="fill:url(#SVGID_00000180348575499466243830000008303614429345276578_);" width="19.7" height="20.2"/>
			</g>
			<g>
				
					<linearGradient id="SVGID_00000080205978746660293730000017283757146984748684_" gradientUnits="userSpaceOnUse" x1="33.3693" y1="16.893" x2="163.4048" y2="90.3482">
					<stop  offset="0" style="stop-color:#19196A"/>
					<stop  offset="1" style="stop-color:#6F93E6"/>
				</linearGradient>
				<path style="fill:url(#SVGID_00000080205978746660293730000017283757146984748684_);" d="M124.5,68.8h-19.7V48.6h0
					c10.9,0,19.7,8.8,19.7,19.7V68.8z"/>
				
					<linearGradient id="SVGID_00000000211250382396096250000017157770281801653403_" gradientUnits="userSpaceOnUse" x1="25.9046" y1="30.1075" x2="155.9401" y2="103.5627">
					<stop  offset="0" style="stop-color:#19196A"/>
					<stop  offset="1" style="stop-color:#6F93E6"/>
				</linearGradient>
				
					<rect x="104.8" y="70.2" style="fill:url(#SVGID_00000000211250382396096250000017157770281801653403_);" width="19.7" height="20.2"/>
				
					<linearGradient id="SVGID_00000107570505921592769370000013352815479315824298_" gradientUnits="userSpaceOnUse" x1="16.6885" y1="46.4225" x2="146.724" y2="119.8777">
					<stop  offset="0" style="stop-color:#19196A"/>
					<stop  offset="1" style="stop-color:#6F93E6"/>
				</linearGradient>
				
					<rect x="104.8" y="91.7" style="fill:url(#SVGID_00000107570505921592769370000013352815479315824298_);" width="19.7" height="20.2"/>
			</g>
		</g>
		<g>
			<g>
				<path class="st0" d="M112.5,22.7L112.5,22.7C112.5,22.7,112.5,22.7,112.5,22.7C112.5,22.7,112.5,22.7,112.5,22.7L112.5,22.7
					c-2.5,0-4.6,1.9-4.8,4.3c-0.3-2.4-2.3-4.3-4.8-4.3v5v0v4.9v0v5h4.9v-5v0v-4.9h4.8v4.9v0v5h4.9v-5v0v-4.9v0v-0.1
					C117.3,24.9,115.1,22.7,112.5,22.7z"/>
				<path class="st0" d="M122.2,22.7L122.2,22.7C122.2,22.7,122.2,22.7,122.2,22.7C122.2,22.7,122.2,22.7,122.2,22.7L122.2,22.7
					c-2.7,0-4.9,2.2-4.9,4.9v0.1h4.9v4.9v0v5h4.9v-5v0v-4.9v0v-0.1C127,24.9,124.8,22.7,122.2,22.7z"/>
			</g>
		</g>
	</g>
</g>
</svg>
