<?xml version="1.0" encoding="utf-8"?>
<!-- Generator: Adobe Illustrator 28.2.0, SVG Export Plug-In . SVG Version: 6.00 Build 0)  -->
<svg version="1.1" id="Layer_1" xmlns="http://www.w3.org/2000/svg" xmlns:xlink="http://www.w3.org/1999/xlink" x="0px" y="0px"
	 viewBox="0 0 643.9 153.5" style="enable-background:new 0 0 643.9 153.5;" xml:space="preserve">
<style type="text/css">
	.st0{fill:#19196A;}
	.st1{fill:url(#SVGID_1_);}
	.st2{fill:url(#SVGID_00000090978713041934629030000008527881959296084136_);}
	.st3{fill:url(#SVGID_00000178902046983658790590000011813428003280913804_);}
	.st4{fill:url(#SVGID_00000163769235433602398000000005529809597402396554_);}
	.st5{fill:url(#SVGID_00000161598335764424944550000000838183165295005119_);}
	.st6{fill:url(#SVGID_00000134935588181147521120000002656069419995207816_);}
	.st7{fill:url(#SVGID_00000091016191856614400930000003575689591694819205_);}
	.st8{fill:url(#SVGID_00000091697949811390829500000003318896165492738750_);}
	.st9{fill:url(#SVGID_00000077315630621116729130000015113564553846752689_);}
	.st10{fill:url(#SVGID_00000170238679004543711740000001353015648226553504_);}
	.st11{fill:url(#SVGID_00000003812494242648942760000008156075961395567024_);}
</style>
<g>
	<g>
		<path class="st0" d="M118.8,101.5h-27V39.3L69.2,72.4H49.8L27,39.3v62.2H0V0h28.1l31.3,45.5L90.8,0h28V101.5z"/>
		<path class="st0" d="M227,101.5h-69.2c-5.3,0-9.9-1.9-13.7-5.7c-3.8-3.8-5.7-8.4-5.7-13.7V19.4c0-5.3,1.9-9.9,5.7-13.7
			c3.8-3.8,8.4-5.7,13.7-5.7H227c5.3,0,9.9,1.9,13.7,5.7c3.8,3.8,5.7,8.4,5.7,13.7v62.7c0,5.3-1.9,9.9-5.7,13.7
			C236.9,99.6,232.3,101.5,227,101.5z M215.1,78.9c1.2,0,2.2-0.4,3-1.3c0.9-0.9,1.3-1.9,1.3-3V27c0-1.2-0.4-2.2-1.3-3
			c-0.9-0.9-1.9-1.3-3-1.3h-45.4c-1.2,0-2.2,0.4-3,1.3c-0.9,0.9-1.3,1.9-1.3,3v47.6c0,1.2,0.4,2.2,1.3,3s1.9,1.3,3,1.3H215.1z"/>
		<path class="st0" d="M341.6,101.5h-76.7V78.9h64.8c1.3,0,2.3-0.4,3.1-1.3c0.8-0.9,1.2-1.9,1.2-3v-8.1c0-1.2-0.4-2.2-1.2-3
			c-0.8-0.9-1.9-1.3-3.1-1.3h-46.4c-5.3,0-9.9-1.9-13.7-5.7c-3.8-3.8-5.7-8.4-5.7-13.8V19.4c0-5.3,1.9-9.9,5.7-13.7
			C273.4,1.9,278,0,283.3,0h75.6v22.6h-63.7c-1.2,0-2.2,0.4-3,1.3c-0.9,0.9-1.3,1.9-1.3,3v8.1c0,1.2,0.4,2.2,1.3,3
			c0.9,0.9,1.9,1.3,3,1.3h46.4c5.4,0,10,1.9,13.8,5.7c3.8,3.8,5.7,8.4,5.7,13.8v23.2c0,5.3-1.9,9.9-5.7,13.7
			C351.6,99.6,347,101.5,341.6,101.5z"/>
		<path class="st0" d="M491.5,101.5h-27l-9-20.5h-49l-9,20.5h-27L414.7,0h32.5L491.5,101.5z M445.6,58.3L431,24.8l-14.7,33.5H445.6z
			"/>
		<path class="st0" d="M530.1,101.5h-27V0h27V101.5z"/>
		<path class="st0" d="M640.5,101.5h-71.4c-5.3,0-9.9-1.9-13.7-5.7c-3.8-3.8-5.7-8.4-5.7-13.7V19.4c0-5.3,1.9-9.9,5.7-13.7
			c3.8-3.8,8.4-5.7,13.7-5.7h71.4v22.6H581c-1.2,0-2.2,0.4-3,1.3c-0.9,0.9-1.3,1.9-1.3,3v47.6c0,1.2,0.4,2.2,1.3,3s1.9,1.3,3,1.3
			h59.5V101.5z"/>
	</g>
	<g>
		<path class="st0" d="M240.6,126h2.1h2.1l9.9,27.5h-2h-2l-2.8-8h-11l-2.9,8h-1.9h-1.9L240.6,126z M238.1,142.2h8.7l-4.2-12.2h0
			L238.1,142.2z"/>
		<path class="st0" d="M272.3,153.5h-1.8h-1.8V126h2.7h2.7l7.9,23.4h0l7.8-23.4h2.7h2.7v27.5h-1.8h-1.8v-23.3h0l-7.8,23.3h-1.8h-1.8
			l-7.8-23.2h0V153.5z"/>
		<path class="st0" d="M301.1,153.5V126h20.1v1.6v1.6h-16.4v8.4h15v1.6v1.6h-15v9.2h16.6v1.6v1.6H301.1z"/>
		<path class="st0" d="M326.8,126h1.9h11c2.9,0,5.1,0.6,6.7,1.9s2.3,3.1,2.3,5.6c0,2.4-0.8,4.3-2.4,5.7c-0.4,0.3-0.8,0.6-1.3,0.9
			l0.6,0.3c1.7,1,2.5,2.6,2.6,4.8l0.1,5c0,0.8,0.1,1.4,0.3,1.8s0.5,0.7,1.1,0.9v0.6h-4.6c-0.1-0.2-0.2-0.8-0.3-1.8s-0.2-2-0.2-3.2
			l-0.1-2.2c0-1.7-0.5-2.9-1.3-3.7s-2.1-1.1-3.9-1.1h-8.8v11.9h-1.9h-1.9V126z M330.5,138.4h9.2c1.7,0,3-0.4,3.8-1.1s1.2-2,1.2-3.6
			c0-1.6-0.4-2.7-1.3-3.5c-0.8-0.7-2.2-1.1-4-1.1h-8.9V138.4z"/>
		<path class="st0" d="M354.6,126h1.9h1.9v27.5h-1.9h-1.9V126z"/>
		<path class="st0" d="M371.6,129.3h-9.3v-1.6V126h22.3v1.6v1.6h-9.3v24.2h-1.9h-1.9V129.3z"/>
		<path class="st0" d="M386.9,141.2h9.4v3.5h-9.4V141.2z"/>
		<path class="st0" d="M401,126h1.9h9.5c3.5,0,6.3,1.2,8.3,3.7c2.1,2.5,3.1,5.8,3.1,10c0,4.2-1.1,7.5-3.2,10s-5,3.7-8.6,3.7h-9.2
			H401V126z M404.8,150.3h6.8c2.7,0,4.7-0.9,6.2-2.8c1.5-1.8,2.2-4.4,2.2-7.8c0-3.4-0.7-6-2.1-7.8c-1.4-1.8-3.4-2.8-6-2.8h-7.1
			V150.3z"/>
		<path class="st0" d="M428.6,133.5h1.6h1.6v3.4c0.3-0.5,0.6-1,0.9-1.5c1.3-1.7,2.8-2.6,4.7-2.6c0.3,0,0.6,0.1,1,0.2v3.4l-0.7,0
			c-1.8,0-3.2,0.5-4.2,1.6c-1,1.1-1.5,2.6-1.5,4.7v10.7h-1.7h-1.7V133.5z"/>
		<path class="st0" d="M441,126h3.4v3.8H441V126z M441,133.5h1.7h1.7v20h-1.7H441V133.5z"/>
		<path class="st0" d="M447.2,133.5h2h2l5.4,16.4h0l5.6-16.4h1.8h1.9l-7.5,20h-1.8h-1.8L447.2,133.5z"/>
		<path class="st0" d="M476.7,154.1c-2.8,0-5.1-0.9-6.7-2.7c-1.6-1.8-2.4-4.3-2.4-7.5c0-3.4,0.9-6,2.6-8c1.7-2,4-3,6.9-3
			c2.6,0,4.7,1,6.3,2.9c1.6,1.9,2.4,4.5,2.4,7.7l0,1.2h-14.6c0.1,2,0.6,3.5,1.4,4.6c0.9,1.3,2.4,1.9,4.5,1.9c1.3,0,2.4-0.4,3.4-1.1
			c1-0.7,1.5-1.6,1.8-2.8h3.3c-0.5,2.2-1.5,3.9-3,5C481,153.5,479.1,154.1,476.7,154.1z M482.3,142c-0.1-1.9-0.6-3.3-1.4-4.3
			c-0.9-1.1-2.2-1.7-4-1.7c-1.8,0-3.2,0.7-4.2,2c-0.8,1-1.3,2.4-1.5,4.1H482.3z"/>
		<path class="st0" d="M489.9,133.5h1.6h1.6v3l0.7-1c1.5-1.7,3.3-2.6,5.5-2.6c2.2,0,3.9,0.6,5.1,1.8s1.8,2.9,1.8,5.1v13.7h-1.7h-1.7
			v-12.6c0-1.8-0.3-3-1-3.8c-0.7-0.8-1.8-1.2-3.3-1.2c-1.6,0-2.9,0.6-3.9,1.8c-0.9,1.2-1.4,2.9-1.4,5v10.7h-1.7h-1.7V133.5z"/>
		<path class="st0" d="M525.8,153.5H524h-1.8V126h2.7h2.7l7.9,23.4h0l7.8-23.4h2.7h2.7v27.5h-1.8h-1.8v-23.3h0l-7.8,23.3h-1.8h-1.8
			l-7.8-23.2h0V153.5z"/>
		<path class="st0" d="M559.1,154.1c-2,0-3.5-0.5-4.7-1.6c-1.1-1-1.7-2.5-1.7-4.2c0-1.8,0.5-3.2,1.6-4.3c1.1-1.1,2.7-1.7,4.7-2
			l4.6-0.6c0.4,0,0.7-0.1,1.1-0.2c0.4-0.1,0.8-0.3,1-0.7c0.2-0.3,0.4-0.8,0.4-1.3v-0.2c0-1.1-0.4-1.9-1.2-2.5
			c-0.8-0.6-1.9-0.9-3.4-0.9c-1.4,0-2.5,0.3-3.2,1c-0.8,0.6-1.3,1.6-1.4,2.9h-3.1c0.2-2.2,0.9-3.8,2.3-5c1.4-1.1,3.4-1.7,6-1.7
			c2.4,0,4.3,0.5,5.6,1.6c1.3,1.1,1.9,2.6,1.9,4.6v11c0,0.3,0.1,0.6,0.3,0.8s0.5,0.3,0.8,0.3c0.1,0,0.2,0,0.4,0
			c0.2,0,0.4-0.1,0.6-0.1v2.4c-0.3,0.1-0.7,0.2-1,0.3c-0.4,0.1-0.7,0.1-0.9,0.1c-1.3,0-2.2-0.3-2.8-1c-0.4-0.5-0.6-1.1-0.8-2
			c-0.2,0.3-0.5,0.6-0.9,0.9C563.6,153.3,561.5,154.1,559.1,154.1z M566.1,145.6v-2.2c-0.6,0.3-1.3,0.5-2.1,0.6l-3.1,0.4
			c-1.6,0.2-2.8,0.6-3.6,1.1c-0.7,0.5-1.1,1.3-1.1,2.2c0,1.1,0.3,2,0.9,2.6c0.6,0.6,1.5,0.9,2.6,0.9c1.8,0,3.3-0.5,4.5-1.4
			c0.8-0.7,1.4-1.4,1.7-2.3c0-0.2,0.1-0.4,0.1-0.8C566,146.4,566.1,146,566.1,145.6z"/>
		<path class="st0" d="M575.6,133.5h1.6h1.6v3.4c0.3-0.5,0.6-1,0.9-1.5c1.3-1.7,2.8-2.6,4.7-2.6c0.3,0,0.6,0.1,1,0.2v3.4l-0.7,0
			c-1.8,0-3.2,0.5-4.2,1.6c-1,1.1-1.5,2.6-1.5,4.7v10.7h-1.7h-1.7V133.5z"/>
		<path class="st0" d="M588,126h1.7h1.7v15.9l8.5-8.4h2.1h2.2l-7.6,7.4l8.1,12.6h-2.2h-2.2l-6.2-10.2l-2.6,2.6v7.6h-1.7H588V126z"/>
		<path class="st0" d="M615.2,154.1c-2.8,0-5.1-0.9-6.7-2.7c-1.6-1.8-2.4-4.3-2.4-7.5c0-3.4,0.9-6,2.6-8c1.7-2,4-3,6.9-3
			c2.6,0,4.7,1,6.3,2.9c1.6,1.9,2.4,4.5,2.4,7.7l0,1.2h-14.6c0.1,2,0.6,3.5,1.4,4.6c0.9,1.3,2.4,1.9,4.5,1.9c1.3,0,2.4-0.4,3.4-1.1
			c1-0.7,1.5-1.6,1.8-2.8h3.3c-0.5,2.2-1.5,3.9-3,5C619.5,153.5,617.6,154.1,615.2,154.1z M620.8,142c-0.1-1.9-0.6-3.3-1.4-4.3
			c-0.9-1.1-2.2-1.7-4-1.7c-1.8,0-3.2,0.7-4.2,2c-0.8,1-1.3,2.4-1.5,4.1H620.8z"/>
		<path class="st0" d="M635.7,153.5c-1.1,0.2-2,0.3-2.5,0.3c-1.5,0-2.5-0.3-3.1-1c-0.6-0.6-0.9-1.8-0.9-3.4v-13.2h-2.8v-2.8h2.8
			v-5.6h3.4v5.6h3.2v2.8h-3.2v13.2c0,0.4,0.2,0.8,0.5,1.1c0.4,0.3,0.8,0.4,1.4,0.4h1.2V153.5z"/>
		<path class="st0" d="M639.9,149.4h4v4.1h-4V149.4z"/>
	</g>
</g>
</svg>
